<svg width="50" height="50" viewBox="0 0 50 50" fill="none" xmlns="http://www.w3.org/2000/svg">
<path d="M1.56268 0C17.0314 0 32.5002 0 48.4377 0C48.4377 0.560576 48.4298 1.0573 48.3668 1.60544C48.3592 1.67331 48.3515 1.74118 48.3436 1.8111C48.318 2.03673 48.2917 2.26228 48.2654 2.48784C48.2466 2.65192 48.2279 2.81601 48.2092 2.98011C48.1579 3.42967 48.106 3.87915 48.0539 4.32862C47.9979 4.81386 47.9424 5.29916 47.8868 5.78446C47.7652 6.84455 47.6429 7.90456 47.5205 8.96455C47.4441 9.62619 47.3678 10.2878 47.2916 10.9495C47.0806 12.7812 46.8694 14.6129 46.6575 16.4445C46.644 16.5616 46.6304 16.6787 46.6165 16.7994C46.589 17.0368 46.5616 17.2742 46.5341 17.5116C46.5205 17.6295 46.5068 17.7473 46.4928 17.8688C46.4791 17.9868 46.4655 18.1048 46.4514 18.2263C46.2299 20.1413 46.0097 22.0564 45.7899 23.9716C45.5643 25.9374 45.3377 27.9032 45.1102 29.8688C44.9825 30.9726 44.8551 32.0765 44.7288 33.1805C44.6214 34.1198 44.513 35.059 44.4036 35.9981C44.3477 36.4774 44.2922 36.9569 44.2379 37.4364C44.1882 37.8749 44.1373 38.3133 44.0855 38.7515C44.0669 38.9106 44.0488 39.0697 44.0311 39.2288C44.0071 39.4442 43.9815 39.6594 43.9556 39.8745C43.9417 39.9944 43.9279 40.1143 43.9137 40.2377C43.8447 40.5409 43.8012 40.6401 43.5549 40.8203C43.3139 40.9552 43.0736 41.0818 42.8266 41.2047C42.7518 41.2425 42.677 41.2803 42.5999 41.3193C42.3487 41.446 42.0972 41.5719 41.8456 41.6978C41.6656 41.7884 41.4856 41.879 41.3057 41.9697C40.8165 42.216 40.3269 42.4616 39.8372 42.7069C39.5314 42.8601 39.2257 43.0135 38.92 43.1669C37.854 43.7018 36.7876 44.2361 35.721 44.7698C34.726 45.2676 33.7318 45.7671 32.738 46.2674C31.8852 46.6965 31.0318 47.1244 30.178 47.5515C29.6678 47.8066 29.1579 48.0623 28.6486 48.3192C28.1697 48.5608 27.6901 48.8008 27.2099 49.0397C27.0336 49.1277 26.8577 49.2162 26.682 49.3053C26.4423 49.4267 26.2018 49.5462 25.961 49.6652C25.8914 49.701 25.8219 49.7368 25.7503 49.7737C25.3232 49.9815 25.0645 50.045 24.6096 49.9023C24.3481 49.791 24.0971 49.6754 23.8434 49.5487C23.7681 49.5118 23.6927 49.4749 23.6151 49.4369C23.3633 49.3134 23.1121 49.1887 22.8608 49.0641C22.6802 48.9752 22.4995 48.8863 22.3189 48.7975C21.7264 48.5058 21.1347 48.2125 20.5431 47.9191C20.3393 47.8181 20.1355 47.7171 19.9317 47.6162C19.0842 47.1962 18.2369 46.7758 17.3903 46.3543C16.1769 45.7502 14.9624 45.1486 13.7462 44.5504C12.8909 44.1295 12.037 43.7059 11.184 43.2802C10.6745 43.026 10.1645 42.7731 9.653 42.523C9.17211 42.2877 8.69298 42.0492 8.21502 41.8081C8.03934 41.7202 7.86305 41.6334 7.68614 41.548C7.44458 41.4312 7.20558 41.3102 6.96672 41.1879C6.86102 41.1387 6.86102 41.1387 6.75318 41.0885C6.47107 40.9392 6.29299 40.8266 6.169 40.5256C6.11256 40.2657 6.0815 40.0107 6.05487 39.7461C6.04129 39.6432 6.02772 39.5402 6.01373 39.4342C5.96626 39.0701 5.92409 38.7056 5.88266 38.3408C5.86636 38.1999 5.85003 38.0591 5.83366 37.9182C5.78902 37.5333 5.7449 37.1484 5.70086 36.7634C5.65315 36.3471 5.60497 35.931 5.55685 35.5148C5.47351 34.7935 5.39047 34.0722 5.30764 33.3508C5.18734 32.3033 5.06659 31.2558 4.94573 30.2084C4.74894 28.5027 4.55251 26.7971 4.3563 25.0913C4.16695 23.4452 3.97745 21.7991 3.78772 20.153C3.77609 20.0521 3.76446 19.9512 3.75247 19.8472C3.68244 19.2396 3.61239 18.6319 3.54235 18.0243C3.43937 17.1309 3.3364 16.2376 3.23344 15.3443C3.22232 15.2477 3.21119 15.1512 3.19972 15.0517C3.04738 13.7299 2.89514 12.408 2.743 11.0861C2.71199 10.8167 2.68097 10.5473 2.64995 10.2779C2.56158 9.51026 2.47323 8.74264 2.38504 7.975C2.22064 6.54405 2.05594 5.11316 1.88568 3.6829C1.86188 3.4821 1.83809 3.28131 1.81429 3.08052C1.77329 2.73472 1.73166 2.38901 1.68955 2.04335C1.6721 1.89673 1.65467 1.75011 1.63727 1.60349C1.62264 1.48283 1.60802 1.36217 1.59296 1.23785C1.55827 0.826571 1.56268 0.412741 1.56268 0Z" fill="#29A5D1"/>
<path d="M8.59358 6.25C19.4217 6.25 30.2498 6.25 41.4061 6.25C41.4061 10.7456 41.4061 10.7456 40.7137 11.7101C40.221 12.1092 39.657 12.271 39.0491 12.4216C38.6178 12.5425 38.2528 12.755 37.866 12.9761C37.7153 13.0568 37.5643 13.1369 37.4129 13.2164C37.3339 13.2579 37.2549 13.2994 37.1735 13.3422C36.6668 13.6045 36.1553 13.8573 35.6444 14.1113C34.9115 14.4756 34.1816 14.8435 33.4593 15.2283C32.6383 15.6655 31.8067 16.0808 30.9739 16.4949C30.1615 16.899 29.3535 17.3097 28.5532 17.7372C27.9596 18.0539 27.3604 18.3509 26.7576 18.6523C31.1082 18.6846 35.4588 18.7168 39.9412 18.75C39.9412 19.7388 39.9412 19.7388 39.8933 20.1615C39.8826 20.2575 39.872 20.3535 39.861 20.4525C39.8491 20.5549 39.8373 20.6573 39.825 20.7628C39.8064 20.9284 39.8064 20.9284 39.7875 21.0973C39.7464 21.4623 39.7046 21.8271 39.6628 22.192C39.6335 22.4505 39.6042 22.7091 39.575 22.9676C39.5134 23.512 39.4515 24.0564 39.3893 24.6007C39.3267 25.1486 39.2644 25.6965 39.2024 26.2445C39.1948 26.3109 39.1873 26.3774 39.1796 26.4458C39.1417 26.7798 39.1041 27.1138 39.067 27.4479C38.9927 28.1132 38.9138 28.7774 38.826 29.4411C38.666 30.672 38.5563 31.8545 38.6249 33.097C38.6706 34.3136 38.7164 35.5827 37.9881 36.6211C36.4589 38.1602 34.1925 39.003 32.2378 39.8545C31.4604 40.1942 30.695 40.5581 29.9293 40.9231C28.8009 41.4596 27.6686 41.9894 26.5246 42.492C26.4017 42.5463 26.2792 42.6011 26.1569 42.6567C25.9899 42.7323 25.8216 42.8053 25.6534 42.8781C25.5596 42.9194 25.4659 42.9608 25.3693 43.0034C24.8577 43.122 24.4262 42.8406 23.9753 42.6154C23.8712 42.5636 23.7672 42.5118 23.6599 42.4585C23.5473 42.402 23.4347 42.3455 23.3186 42.2873C23.1976 42.2269 23.0766 42.1666 22.9556 42.1063C22.6282 41.943 22.301 41.7793 21.9739 41.6154C21.6313 41.4439 21.2886 41.2727 20.9458 41.1015C20.3707 40.8141 19.7958 40.5264 19.2209 40.2385C18.5561 39.9055 17.8909 39.5731 17.2256 39.241C16.6542 38.9558 16.0829 38.6702 15.5118 38.3844C15.1707 38.2137 14.8296 38.0431 14.4884 37.8728C14.1679 37.7129 13.8476 37.5525 13.5275 37.3919C13.3536 37.3048 13.1796 37.218 13.0055 37.1313C12.9026 37.0796 12.7996 37.0278 12.6935 36.9745C12.6037 36.9296 12.5139 36.8846 12.4214 36.8383C12.2069 36.7187 12.2069 36.7188 12.0115 36.5234C11.9678 36.3205 11.9678 36.3205 11.9402 36.0664C11.9295 35.971 11.9187 35.8756 11.9076 35.7773C11.8967 35.6731 11.8858 35.5688 11.8746 35.4614C11.8626 35.3528 11.8505 35.2443 11.8381 35.1324C11.7995 34.7823 11.7621 34.4322 11.7247 34.082C11.6999 33.855 11.675 33.6281 11.6501 33.4011C11.6127 33.0605 11.5754 32.72 11.5386 32.3793C11.4757 31.7973 11.4107 31.2156 11.3416 30.6343C11.328 30.5194 11.3144 30.4044 11.3004 30.286C11.2745 30.0681 11.2482 29.8502 11.2216 29.6324C11.2099 29.5341 11.1982 29.4359 11.1862 29.3346C11.1758 29.2493 11.1655 29.1639 11.1548 29.0759C11.1286 28.7599 11.1326 28.442 11.1326 28.125C13.1951 28.125 15.2576 28.125 17.3826 28.125C17.5232 28.8979 17.6439 29.6545 17.7366 30.4321C17.7497 30.5364 17.7628 30.6406 17.7763 30.748C17.848 31.3435 17.8848 31.9198 17.8709 32.5195C17.9912 32.5554 17.9912 32.5554 18.1138 32.5921C18.5152 32.7357 18.8806 32.9196 19.2579 33.1165C19.3349 33.1562 19.4118 33.1959 19.491 33.2368C19.6555 33.3217 19.8198 33.4068 19.9841 33.4921C20.2407 33.6251 20.4976 33.7574 20.7546 33.8895C21.4627 34.2534 22.1705 34.6179 22.8761 34.9867C23.0543 35.0796 23.2328 35.1718 23.4115 35.2637C23.6228 35.3724 23.8335 35.4824 24.0434 35.5937C24.1366 35.6413 24.2298 35.6889 24.3258 35.738C24.4048 35.7793 24.4839 35.8205 24.5654 35.863C25.1584 36.0477 25.6768 35.7236 26.1942 35.4588C26.3091 35.4011 26.3091 35.4011 26.4263 35.3423C26.6735 35.218 26.92 35.0925 27.1666 34.967C27.3358 34.8816 27.5051 34.7962 27.6744 34.7108C28.7183 34.1836 29.7574 33.6475 30.7892 33.0969C31.0412 32.963 31.2946 32.8321 31.5489 32.7026C31.6563 32.6479 31.6563 32.6479 31.766 32.592C31.9334 32.5195 31.9334 32.5195 32.1287 32.5195C32.161 31.9717 32.1932 31.4238 32.2264 30.8594C32.452 28.9258 32.6776 26.9922 32.91 25C25.5946 25 18.2791 25 10.742 25C10.6338 24.7836 10.6144 24.6253 10.5869 24.3853C10.5718 24.2552 10.5718 24.2552 10.5563 24.1226C10.5459 24.0287 10.5354 23.9348 10.5246 23.838C10.5136 23.7417 10.5027 23.6454 10.4915 23.5461C10.4684 23.342 10.4456 23.138 10.423 22.9339C10.3882 22.6215 10.3523 22.3093 10.3163 21.9971C10.2941 21.799 10.272 21.6009 10.2499 21.4027C10.239 21.3092 10.2282 21.2157 10.217 21.1194C10.2075 21.0321 10.198 20.9448 10.1883 20.8548C10.1797 20.7782 10.1711 20.7016 10.1622 20.6226C10.1556 20.3948 10.1709 20.2322 10.2537 20.0195C10.4936 19.8663 10.7218 19.7402 10.9762 19.6159C11.0513 19.5779 11.1263 19.54 11.2037 19.5008C11.452 19.3754 11.7013 19.252 11.9505 19.1284C12.1247 19.0408 12.2989 18.9531 12.4729 18.8652C12.83 18.6851 13.1874 18.5056 13.545 18.3265C14.2209 17.9874 14.8931 17.641 15.565 17.294C15.9144 17.1137 16.264 16.9339 16.6136 16.7542C16.6838 16.7181 16.7539 16.682 16.8262 16.6448C17.8197 16.1339 18.814 15.6244 19.8082 15.115C21.442 14.2776 23.0742 13.4373 24.7069 12.5977C17.0692 12.5493 17.0692 12.5493 9.27717 12.5C9.15471 11.7653 9.03954 11.0398 8.95598 10.3012C8.94013 10.1634 8.94013 10.1634 8.92397 10.0228C8.902 9.83085 8.88018 9.63884 8.85851 9.44681C8.82543 9.15451 8.79154 8.8623 8.75761 8.5701C8.7362 8.38217 8.71484 8.19423 8.69352 8.00629C8.68346 7.92001 8.67339 7.83373 8.66302 7.74483C8.65387 7.66265 8.64472 7.58046 8.6353 7.49578C8.62722 7.42472 8.61913 7.35366 8.6108 7.28044C8.58712 6.93773 8.59358 6.59353 8.59358 6.25Z" fill="#D7D8D9"/>
<path d="M25 0C32.7344 0 40.4688 0 48.4375 0C48.4375 0.560576 48.4296 1.0573 48.3666 1.60544C48.359 1.67331 48.3513 1.74118 48.3434 1.8111C48.3178 2.03673 48.2915 2.26228 48.2652 2.48784C48.2465 2.65192 48.2277 2.81601 48.2091 2.98011C48.1577 3.42967 48.1058 3.87915 48.0538 4.32862C47.9977 4.81386 47.9422 5.29916 47.8866 5.78446C47.765 6.84455 47.6428 7.90456 47.5203 8.96455C47.4439 9.62619 47.3677 10.2878 47.2914 10.9495C47.0804 12.7812 46.8692 14.6129 46.6574 16.4445C46.6438 16.5616 46.6303 16.6787 46.6163 16.7994C46.5888 17.0368 46.5614 17.2742 46.5339 17.5116C46.5203 17.6295 46.5066 17.7473 46.4926 17.8688C46.479 17.9868 46.4653 18.1048 46.4512 18.2263C46.2298 20.1413 46.0095 22.0564 45.7897 23.9716C45.5641 25.9374 45.3376 27.9032 45.11 29.8688C44.9823 30.9726 44.855 32.0765 44.7287 33.1805C44.6212 34.1198 44.5129 35.059 44.4034 35.9981C44.3475 36.4774 44.2921 36.9569 44.2377 37.4364C44.188 37.8749 44.1372 38.3133 44.0853 38.7515C44.0667 38.9106 44.0486 39.0697 44.0309 39.2288C44.0069 39.4442 43.9814 39.6594 43.9554 39.8745C43.9416 39.9944 43.9277 40.1143 43.9135 40.2377C43.8446 40.5409 43.801 40.6402 43.5547 40.8203C43.3128 40.955 43.0717 41.0814 42.8238 41.204C42.7487 41.2418 42.6736 41.2795 42.5963 41.3184C42.3442 41.4449 42.0917 41.5706 41.8392 41.6962C41.6586 41.7867 41.478 41.8772 41.2974 41.9677C40.8066 42.2136 40.3154 42.4587 39.8241 42.7037C39.3108 42.9598 38.7977 43.2165 38.2846 43.4732C37.4231 43.904 36.5613 44.3343 35.6993 44.7644C34.7016 45.2622 33.7042 45.7608 32.707 46.2597C31.749 46.739 30.7907 47.2178 29.8323 47.6965C29.4239 47.9005 29.0154 48.1046 28.6071 48.3089C28.1267 48.5492 27.6462 48.7891 27.1655 49.0286C26.9887 49.1168 26.8119 49.2052 26.6352 49.2937C26.3949 49.414 26.1544 49.5338 25.9138 49.6535C25.8432 49.689 25.7725 49.7245 25.6997 49.7611C25.2176 50 25.2176 50 25 50C25 47.7119 25 45.4238 25 43.0664C27.1332 41.9436 27.1332 41.9436 28.067 41.477C28.1737 41.4235 28.2803 41.37 28.3902 41.3149C28.6753 41.172 28.9605 41.0292 29.2458 40.8865C29.4246 40.7971 29.6034 40.7076 29.7821 40.6181C30.4072 40.3051 31.0324 39.9923 31.6577 39.6797C32.2391 39.389 32.8203 39.0979 33.4014 38.8066C33.9033 38.555 34.4053 38.3037 34.9075 38.0527C35.2062 37.9033 35.5049 37.7538 35.8035 37.604C36.1342 37.4382 36.4652 37.2728 36.7962 37.1076C36.8949 37.058 36.9935 37.0084 37.0952 36.9573C37.1848 36.9127 37.2744 36.8681 37.3667 36.8221C37.4838 36.7635 37.4838 36.7635 37.6033 36.7038C37.793 36.6211 37.793 36.6211 37.9883 36.6211C37.9865 36.5092 37.9848 36.3974 37.983 36.2821C37.9833 35.8542 38.0224 35.4375 38.0729 35.013C38.082 34.9337 38.0911 34.8544 38.1005 34.7727C38.1307 34.5097 38.1615 34.2469 38.1924 33.984C38.2141 33.7958 38.2358 33.6076 38.2575 33.4194C38.3038 33.0175 38.3505 32.6155 38.3973 32.2136C38.4708 31.5832 38.5437 30.9528 38.6165 30.3223C38.691 29.6771 38.7655 29.0318 38.8403 28.3867C39.086 26.2653 39.3278 24.1434 39.5691 22.0215C39.7534 20.4021 39.7534 20.4021 39.9414 18.75C35.5264 18.75 31.1113 18.75 26.5625 18.75C26.886 18.5073 27.1652 18.3403 27.5242 18.1637C27.693 18.0801 27.693 18.0801 27.8652 17.9949C27.9541 17.9512 27.9541 17.9512 28.0448 17.9066C28.357 17.7531 28.6684 17.5983 28.9799 17.4435C29.0417 17.4128 29.1034 17.3821 29.1671 17.3504C29.6538 17.108 30.1356 16.8576 30.6152 16.6016C31.4326 16.1659 32.2606 15.7526 33.0899 15.3403C33.8766 14.949 34.658 14.5496 35.4336 14.1365C36.1915 13.7346 36.96 13.3543 37.7284 12.9729C38.4797 12.599 39.2245 12.2144 39.9624 11.8147C40.0664 11.7589 40.0664 11.7589 40.1726 11.702C40.2619 11.6535 40.2619 11.6535 40.353 11.604C40.5273 11.5234 40.5273 11.5234 40.918 11.4258C40.9502 10.9102 40.9824 10.3945 41.0156 9.86328C41.1445 8.6709 41.2734 7.47852 41.4062 6.25C35.9922 6.25 30.5781 6.25 25 6.25C25 4.1875 25 2.125 25 0Z" fill="#208DB8"/>
<path d="M8.59358 6.25C14.0076 6.25 19.4217 6.25 24.9998 6.25C24.9998 12.4375 24.9998 18.625 24.9998 25C20.2948 25 15.5897 25 10.742 25C10.6338 24.7836 10.6144 24.6253 10.5869 24.3853C10.5718 24.2552 10.5718 24.2552 10.5563 24.1226C10.5459 24.0287 10.5354 23.9348 10.5246 23.838C10.5136 23.7417 10.5027 23.6454 10.4915 23.5461C10.4684 23.342 10.4456 23.138 10.423 22.9339C10.3882 22.6215 10.3523 22.3093 10.3163 21.9971C10.2941 21.799 10.272 21.6009 10.2499 21.4027C10.239 21.3092 10.2282 21.2157 10.217 21.1194C10.2075 21.0321 10.198 20.9448 10.1883 20.8548C10.1797 20.7782 10.1711 20.7016 10.1622 20.6226C10.1556 20.3948 10.1709 20.2322 10.2537 20.0195C10.4936 19.8663 10.7218 19.7402 10.9762 19.6159C11.0513 19.5779 11.1263 19.54 11.2037 19.5008C11.452 19.3754 11.7013 19.252 11.9505 19.1284C12.1247 19.0408 12.2989 18.9531 12.4729 18.8652C12.83 18.6851 13.1874 18.5056 13.545 18.3265C14.2209 17.9874 14.8931 17.641 15.565 17.294C15.9144 17.1137 16.264 16.9339 16.6136 16.7542C16.6838 16.7181 16.7539 16.682 16.8262 16.6448C17.8197 16.1339 18.814 15.6244 19.8082 15.115C21.442 14.2776 23.0742 13.4373 24.7069 12.5977C17.0692 12.5493 17.0692 12.5493 9.27717 12.5C9.15471 11.7653 9.03954 11.0398 8.95598 10.3012C8.94013 10.1634 8.94013 10.1634 8.92397 10.0228C8.902 9.83085 8.88018 9.63884 8.85851 9.44681C8.82543 9.15451 8.79154 8.8623 8.75761 8.5701C8.7362 8.38217 8.71484 8.19423 8.69352 8.00629C8.68346 7.92001 8.67339 7.83373 8.66302 7.74483C8.65387 7.66265 8.64472 7.58046 8.6353 7.49578C8.62722 7.42472 8.61913 7.35366 8.6108 7.28044C8.58712 6.93773 8.59358 6.59353 8.59358 6.25Z" fill="#FEFEFE"/>
<path d="M11.133 28.125C13.1955 28.125 15.258 28.125 17.383 28.125C17.5236 28.8979 17.6443 29.6545 17.737 30.4321C17.7567 30.5885 17.7567 30.5885 17.7767 30.748C17.8484 31.3435 17.8851 31.9198 17.8713 32.5195C17.9515 32.5435 18.0316 32.5674 18.1142 32.5921C18.5156 32.7357 18.881 32.9196 19.2583 33.1165C19.3353 33.1562 19.4122 33.1959 19.4915 33.2368C19.741 33.3656 19.9902 33.4949 20.2395 33.6243C20.5831 33.8019 20.9268 33.9792 21.2706 34.1564C21.3557 34.2003 21.4407 34.2442 21.5284 34.2894C22.0421 34.5541 22.5573 34.8157 23.0749 35.0727C23.1348 35.1024 23.1947 35.1322 23.2564 35.1628C23.53 35.2985 23.8039 35.4335 24.0781 35.568C24.2198 35.638 24.2198 35.638 24.3643 35.7094C24.486 35.769 24.486 35.769 24.6101 35.8298C24.8049 35.9375 24.8049 35.9375 25.0002 36.1328C25.0237 36.4158 25.0237 36.4158 25.0224 36.7825C25.0224 36.8492 25.0225 36.9159 25.0225 36.9846C25.0223 37.2055 25.0208 37.4264 25.0193 37.6472C25.0189 37.8002 25.0187 37.9532 25.0185 38.1062C25.0177 38.5092 25.0158 38.9121 25.0136 39.3151C25.0116 39.7262 25.0107 40.1372 25.0098 40.5483C25.0077 41.3551 25.0043 42.1619 25.0002 42.9688C24.6247 42.9091 24.3269 42.7969 23.9874 42.6271C23.8835 42.5755 23.7796 42.5239 23.6725 42.4707C23.503 42.3854 23.503 42.3854 23.3301 42.2983C23.2091 42.238 23.0881 42.1777 22.9671 42.1174C22.6392 41.9539 22.3117 41.7897 21.9842 41.6253C21.6414 41.4534 21.2984 41.282 20.9553 41.1106C20.3796 40.8228 19.8041 40.5345 19.2287 40.2459C18.5632 39.9121 17.8973 39.579 17.2312 39.2462C16.5905 38.9262 15.9501 38.6057 15.3098 38.285C15.0372 38.1485 14.7645 38.0121 14.4918 37.8758C14.1709 37.7155 13.8502 37.5547 13.5297 37.3937C13.3556 37.3063 13.1813 37.2194 13.007 37.1324C12.9039 37.0805 12.8008 37.0286 12.6946 36.9751C12.6047 36.9301 12.5147 36.885 12.4221 36.8386C12.2073 36.7187 12.2073 36.7188 12.0119 36.5234C11.9682 36.3205 11.9682 36.3205 11.9406 36.0664C11.9299 35.971 11.9191 35.8756 11.908 35.7773C11.8971 35.6731 11.8862 35.5688 11.875 35.4614C11.8569 35.2986 11.8569 35.2986 11.8385 35.1324C11.7999 34.7823 11.7625 34.4322 11.7251 34.082C11.7003 33.855 11.6754 33.6281 11.6505 33.4011C11.6131 33.0605 11.5758 32.72 11.539 32.3793C11.4761 31.7973 11.4111 31.2156 11.342 30.6343C11.3284 30.5194 11.3148 30.4044 11.3008 30.286C11.2749 30.0681 11.2486 29.8502 11.222 29.6324C11.2045 29.485 11.2045 29.485 11.1866 29.3346C11.1762 29.2493 11.1659 29.1639 11.1552 29.0759C11.129 28.7599 11.133 28.442 11.133 28.125Z" fill="#FDFEFE"/>
<path d="M25 25.0977C27.6104 25.0977 30.2207 25.0977 32.9102 25.0977C32.8779 25.5811 32.8457 26.0645 32.8125 26.5625C32.7988 26.9081 32.7851 27.2536 32.772 27.5992C32.5781 32.0589 32.5781 32.0589 31.8393 32.9233C31.2076 33.4977 30.3692 33.7132 29.5542 33.8951C29.06 34.0194 28.6587 34.2404 28.2227 34.4971C28.0808 34.5734 27.9385 34.6489 27.7958 34.7237C27.7244 34.7613 27.6531 34.799 27.5795 34.8378C27.1105 35.0827 26.6384 35.3213 26.1658 35.5591C26.0721 35.6066 25.9783 35.6541 25.8818 35.703C25.7951 35.7464 25.7084 35.7898 25.6191 35.8345C25.5419 35.8733 25.4648 35.9121 25.3853 35.952C25.1953 36.0352 25.1953 36.0352 25 36.0352C25 32.4258 25 28.8164 25 25.0977Z" fill="#208DB8"/>
</svg>
