<svg width="50" height="50" viewBox="0 0 50 50" fill="none" xmlns="http://www.w3.org/2000/svg">
<g clip-path="url(#clip0_143_5)">
<path d="M2.92962 0C17.5283 0 32.1269 0 47.1679 0C47.055 2.25836 47.055 2.25836 46.9814 3.28368C46.976 3.35959 46.9706 3.43551 46.965 3.51372C46.9594 3.59245 46.9537 3.67117 46.9479 3.75229C46.9358 3.92394 46.9237 4.0956 46.9116 4.26726C46.8788 4.73271 46.8458 5.19815 46.8127 5.66358C46.7768 6.16787 46.7412 6.67219 46.7056 7.1765C46.636 8.16159 46.5661 9.14666 46.4962 10.1317C46.4394 10.9321 46.3827 11.7325 46.326 12.5329C46.3179 12.6471 46.3098 12.7613 46.3015 12.879C46.285 13.1111 46.2686 13.3431 46.2521 13.5752C46.0984 15.746 45.9443 17.9169 45.7902 20.0878C45.6492 22.0742 45.5085 24.0607 45.368 26.0472C45.2235 28.089 45.0789 30.1309 44.934 32.1727C44.8527 33.3182 44.7715 34.4637 44.6905 35.6093C44.6216 36.5833 44.5525 37.5572 44.4832 38.5312C44.4479 39.0281 44.4126 39.525 44.3776 40.0219C44.3455 40.4765 44.3132 40.9311 44.2807 41.3857C44.269 41.5503 44.2573 41.715 44.2458 41.8796C44.2302 42.1031 44.2141 42.3265 44.1981 42.5499C44.1848 42.7363 44.1848 42.7362 44.1714 42.9263C44.1428 43.2374 44.0988 43.5404 44.0429 43.8477C43.4106 44.0593 42.7782 44.2706 42.1457 44.4818C41.9328 44.553 41.7199 44.6241 41.5071 44.6954C40.0345 45.1882 38.5594 45.6726 37.0826 46.1525C34.8828 46.8673 32.6859 47.5907 30.4895 48.3156C30.0874 48.4483 29.6852 48.5809 29.2831 48.7135C28.4528 48.9874 27.6224 49.2613 26.7921 49.5353C26.7178 49.5598 26.6434 49.5844 26.5667 49.6097C26.4624 49.6441 26.4624 49.6441 26.3561 49.6792C26.2907 49.7005 26.2252 49.7218 26.1579 49.7438C25.9956 49.7983 25.8353 49.8584 25.6753 49.9192C25.0838 50.0871 24.6026 49.9937 24.0296 49.8026C23.9651 49.7814 23.9006 49.7602 23.8342 49.7383C23.6201 49.6677 23.4065 49.5956 23.1929 49.5235C23.0397 49.4727 22.8864 49.4219 22.7331 49.3712C22.4048 49.2625 22.0767 49.1531 21.7488 49.0432C21.2294 48.8691 20.7095 48.6964 20.1895 48.524C19.5637 48.3164 18.9381 48.1084 18.3126 47.9001C16.8018 47.3969 15.2891 46.8995 13.7761 46.4031C13.3723 46.2706 12.9686 46.1378 12.5649 46.005C10.3638 45.2812 8.16048 44.5642 5.95696 43.8477C5.52683 37.879 5.09836 31.9103 4.67115 25.9415C4.62541 25.3025 4.57967 24.6636 4.53392 24.0246C4.30306 20.8008 4.07259 17.5769 3.84316 14.3529C3.82433 14.0884 3.80551 13.8239 3.78668 13.5594C3.77972 13.4616 3.77972 13.4616 3.77261 13.3617C3.69775 12.3101 3.62257 11.2585 3.54726 10.2069C3.47105 9.14255 3.39521 8.07822 3.31972 7.01387C3.27854 6.43337 3.2372 5.85289 3.19544 5.27243C3.15697 4.73757 3.11896 4.20268 3.08129 3.66776C3.06758 3.47424 3.05372 3.28072 3.03967 3.08723C3.02047 2.82259 3.00189 2.55792 2.98345 2.29323C2.97792 2.21901 2.97239 2.14479 2.9667 2.06833C2.91951 1.37469 2.92962 0.701196 2.92962 0Z" fill="#FE7816"/>
<path d="M25 0C32.3154 0 39.6309 0 47.168 0C47.0551 2.25836 47.0551 2.25836 46.9815 3.28368C46.9761 3.35959 46.9706 3.43551 46.9651 3.51372C46.9594 3.59245 46.9538 3.67117 46.948 3.75229C46.9359 3.92394 46.9238 4.0956 46.9117 4.26726C46.8789 4.73271 46.8458 5.19815 46.8127 5.66358C46.7769 6.16787 46.7413 6.67219 46.7057 7.1765C46.6361 8.16159 46.5662 9.14666 46.4963 10.1317C46.4395 10.9321 46.3827 11.7325 46.326 12.5329C46.3179 12.6471 46.3099 12.7613 46.3015 12.879C46.2851 13.1111 46.2687 13.3431 46.2522 13.5752C46.0984 15.746 45.9444 17.9169 45.7903 20.0878C45.6493 22.0742 45.5086 24.0607 45.3681 26.0472C45.2236 28.089 45.0789 30.1309 44.934 32.1727C44.8527 33.3182 44.7715 34.4637 44.6905 35.6093C44.6217 36.5833 44.5526 37.5572 44.4833 38.5312C44.4479 39.0281 44.4127 39.525 44.3776 40.0219C44.3456 40.4765 44.3133 40.9311 44.2808 41.3857C44.269 41.5503 44.2574 41.715 44.2459 41.8796C44.2302 42.1031 44.2142 42.3265 44.1981 42.5499C44.1849 42.7363 44.1849 42.7362 44.1714 42.9263C44.1429 43.2374 44.0989 43.5404 44.043 43.8477C43.4106 44.0593 42.7782 44.2706 42.1458 44.4818C41.9329 44.553 41.72 44.6241 41.5072 44.6954C40.0346 45.1882 38.5595 45.6726 37.0827 46.1525C34.8829 46.8673 32.686 47.5907 30.4896 48.3156C30.0874 48.4483 29.6853 48.5809 29.2832 48.7135C28.4528 48.9874 27.6225 49.2613 26.7922 49.5353C26.7178 49.5598 26.6434 49.5844 26.5668 49.6097C26.4973 49.6326 26.4278 49.6555 26.3561 49.6792C26.2911 49.7005 26.2261 49.7218 26.1591 49.7438C25.9909 49.7999 25.8239 49.8594 25.657 49.9192C25.3906 50 25.3906 50 25 50C25 47.4863 25 44.9727 25 42.3828C26.7947 41.7098 26.7947 41.7098 27.6781 41.4181C27.778 41.3849 27.8779 41.3516 27.9809 41.3173C28.3042 41.2098 28.6278 41.1026 28.9513 40.9954C29.1785 40.9199 29.4057 40.8443 29.6328 40.7687C30.2257 40.5715 30.8187 40.3747 31.4117 40.1779C32.3656 39.8614 33.3192 39.5444 34.2729 39.2273C34.6055 39.1168 34.9383 39.0064 35.271 38.8961C35.4732 38.8289 35.6755 38.7617 35.8778 38.6945C35.9705 38.6638 36.0632 38.6331 36.1587 38.6015C36.243 38.5734 36.3273 38.5454 36.4142 38.5165C36.5243 38.4799 36.5243 38.4799 36.6366 38.4427C36.8223 38.381 36.8223 38.381 37.0117 38.2812C37.0602 37.9957 37.0602 37.9957 37.079 37.6421C37.0839 37.5745 37.0888 37.5069 37.0938 37.4373C37.1101 37.2092 37.125 36.981 37.1399 36.7527C37.1513 36.5898 37.1627 36.4268 37.1742 36.2639C37.2053 35.8198 37.2352 35.3756 37.2649 34.9315C37.2963 34.4667 37.3287 34.002 37.361 33.5373C37.4221 32.6556 37.4823 31.7737 37.5422 30.8919C37.6299 29.6005 37.719 28.3092 37.8081 27.018C37.8212 26.8271 37.8344 26.6361 37.8476 26.4452C37.854 26.352 37.8604 26.2587 37.8671 26.1626C37.9052 25.6096 37.9431 25.0565 37.9807 24.5035C38.0042 24.1582 38.0278 23.8128 38.0514 23.4675C38.0623 23.3081 38.0731 23.1487 38.0839 22.9892C38.0987 22.7704 38.1137 22.5516 38.1287 22.3328C38.137 22.2107 38.1453 22.0885 38.1538 21.9627C38.1893 21.5097 38.236 21.0576 38.2812 20.6055C31.4492 20.6055 24.6172 20.6055 17.5781 20.6055C17.5137 19.542 17.4492 18.4785 17.3828 17.3828C17.3181 16.7317 17.253 16.0807 17.1875 15.4297C17.1553 14.7207 17.123 14.0117 17.0898 13.2812C24.2764 13.2812 31.4629 13.2812 38.8672 13.2812C38.8672 12.8623 38.8672 12.4434 38.8672 12.0117C38.8838 11.6679 38.9029 11.326 38.9278 10.9829C38.9341 10.8924 38.9404 10.8019 38.9468 10.7087C38.96 10.5202 38.9734 10.3318 38.987 10.1433C39.0077 9.85475 39.0276 9.56615 39.0474 9.27753C39.0604 9.09322 39.0734 8.9089 39.0865 8.72459C39.0924 8.63874 39.0983 8.55289 39.1044 8.46443C39.1103 8.38449 39.1161 8.30454 39.1222 8.22217C39.1272 8.15227 39.1322 8.08237 39.1373 8.01035C39.1602 7.8125 39.1602 7.8125 39.2578 7.42188C34.5527 7.42188 29.8477 7.42188 25 7.42188C25 4.97266 25 2.52344 25 0Z" fill="#FE4B00"/>
<path d="M10.8398 7.42188C20.2177 7.42188 29.5957 7.42188 39.2578 7.42188C38.9648 12.0117 38.9648 12.0117 38.8671 13.2812C31.6806 13.2812 24.4941 13.2812 17.0898 13.2812C17.276 15.581 17.276 15.581 17.4987 17.8772C17.5811 18.7833 17.5781 19.6957 17.5781 20.6055C24.4101 20.6055 31.2421 20.6055 38.2812 20.6055C38.2812 21.7041 38.2812 21.7041 38.2498 22.1414C38.2428 22.2409 38.2359 22.3404 38.2287 22.4429C38.217 22.6014 38.217 22.6014 38.2052 22.7632C38.1971 22.8774 38.189 22.9916 38.1806 23.1093C38.1538 23.486 38.1265 23.8627 38.0992 24.2393C38.0802 24.5057 38.0612 24.7721 38.0422 25.0385C37.9972 25.6701 37.9518 26.3016 37.9063 26.9332C37.8508 27.704 37.7956 28.4749 37.7405 29.2458C37.7331 29.3481 37.7331 29.3481 37.7257 29.4526C37.7061 29.7268 37.6865 30.001 37.6668 30.2752C37.6426 30.6139 37.6184 30.9526 37.5941 31.2912C37.4272 33.6209 37.2656 35.9509 37.1093 38.2812C36.4673 38.5825 35.8162 38.8238 35.1433 39.0464C35.0383 39.0815 34.9332 39.1166 34.8249 39.1529C34.4803 39.268 34.1354 39.3825 33.7905 39.497C33.5499 39.5772 33.3093 39.6574 33.0687 39.7376C32.5658 39.9053 32.0628 40.0726 31.5597 40.2397C30.9788 40.4327 30.398 40.6261 29.8174 40.8199C29.2571 41.0068 28.6967 41.1934 28.1363 41.3799C27.8984 41.4591 27.6606 41.5383 27.4228 41.6176C27.091 41.7282 26.7591 41.8385 26.4271 41.9486C26.3289 41.9814 26.2307 42.0142 26.1295 42.048C26.0389 42.078 25.9483 42.108 25.8549 42.1389C25.7374 42.1779 25.7374 42.1779 25.6175 42.2178C25.1524 42.3558 24.8673 42.4038 24.4 42.2469C24.301 42.2143 24.202 42.1817 24.1 42.1482C23.9925 42.1114 23.885 42.0747 23.7742 42.0369C23.6602 41.9989 23.5461 41.961 23.4286 41.9219C23.1164 41.8178 22.8046 41.7127 22.4929 41.6071C22.1666 41.4969 21.8399 41.3879 21.5133 41.2788C20.9651 41.0955 20.4171 40.9114 19.8694 40.7266C19.0965 40.4659 18.3231 40.2067 17.5496 39.9478C16.4573 39.5821 15.3652 39.2157 14.2737 38.8478C14.1656 38.8115 14.0575 38.7751 13.9461 38.7377C13.8479 38.7046 13.7498 38.6714 13.6486 38.6373C13.5202 38.594 13.5202 38.594 13.3892 38.5499C13.1835 38.4766 13.1835 38.4766 12.9882 38.3789C12.9497 38.2106 12.9497 38.2106 12.9299 37.9894C12.9222 37.9072 12.9145 37.825 12.9066 37.7402C12.8993 37.6509 12.892 37.5615 12.8845 37.4695C12.8764 37.378 12.8682 37.2865 12.8599 37.1922C12.7989 36.4766 12.7572 35.7605 12.7286 35.0428C12.7135 34.6745 12.6899 34.3121 12.6438 33.9462C12.5919 33.4405 12.5976 32.9302 12.5976 32.4219C14.5312 32.4219 16.4648 32.4219 18.457 32.4219C18.5729 32.7696 18.5641 33.0506 18.5607 33.4167C18.5599 33.541 18.559 33.6652 18.5581 33.7933C18.5569 33.8886 18.5558 33.9838 18.5546 34.082C18.6747 34.1059 18.7947 34.1297 18.9183 34.1542C19.5096 34.286 20.0741 34.4853 20.6455 34.6844C20.8794 34.7644 21.1133 34.8443 21.3472 34.9241C21.7128 35.0494 22.0782 35.1752 22.4433 35.3022C22.7977 35.4253 23.1528 35.5463 23.508 35.667C23.6166 35.7054 23.7251 35.7437 23.837 35.7832C24.9571 36.1603 25.6815 35.896 26.7684 35.5221C26.9541 35.4594 27.1397 35.3967 27.3254 35.334C27.6491 35.2245 27.9724 35.114 28.2959 35.0037C28.6835 34.8715 29.0712 34.7396 29.4592 34.6086C29.7002 34.5271 29.9411 34.4451 30.1817 34.3624C30.2906 34.3256 30.3995 34.2888 30.5117 34.2508C30.6074 34.2181 30.703 34.1855 30.8016 34.1518C31.0546 34.082 31.0546 34.082 31.4453 34.082C31.4443 34.0194 31.4434 33.9568 31.4424 33.8923C31.4363 33.1646 31.4745 32.4452 31.5273 31.7196C31.5357 31.5999 31.5442 31.4802 31.5529 31.3568C31.5707 31.1053 31.5886 30.8537 31.6068 30.6022C31.6344 30.2193 31.6615 29.8364 31.6885 29.4535C31.7059 29.2079 31.7234 28.9623 31.7409 28.7167C31.753 28.5466 31.753 28.5466 31.7653 28.3732C31.7731 28.2653 31.7809 28.1574 31.7889 28.0462C31.7957 27.9527 31.8024 27.8592 31.8093 27.7629C31.8451 27.3297 31.8903 26.8974 31.9335 26.4648C25.3916 26.4648 18.8496 26.4648 12.1093 26.4648C11.9482 24.1445 11.7871 21.8242 11.621 19.4336C11.5093 18.0558 11.5093 18.0558 11.3948 16.6782C11.289 15.3921 11.2168 14.1034 11.1387 12.8154C11.0659 11.6155 10.9885 10.4164 10.8943 9.218C10.887 9.12202 10.8797 9.02604 10.8722 8.92715C10.8659 8.84755 10.8596 8.76794 10.8531 8.68592C10.8336 8.265 10.8398 7.84325 10.8398 7.42188Z" fill="#E7E6EB"/>
<path d="M25 7.42188C29.7051 7.42188 34.4102 7.42188 39.2578 7.42188C38.9648 12.0117 38.9648 12.0117 38.8672 13.2812C34.291 13.2812 29.7148 13.2812 25 13.2812C25 11.3477 25 9.41406 25 7.42188Z" fill="#E2E1E6"/>
<path d="M12.5978 32.4219C14.5314 32.4219 16.465 32.4219 18.4572 32.4219C18.5731 32.7696 18.5643 33.0506 18.561 33.4167C18.5601 33.541 18.5592 33.6652 18.5583 33.7933C18.5572 33.8886 18.556 33.9838 18.5549 34.082C18.6745 34.1061 18.7942 34.1301 18.9175 34.1549C19.5127 34.2875 20.0852 34.4805 20.6629 34.6741C20.778 34.7123 20.8931 34.7506 21.0117 34.7901C21.2536 34.8706 21.4953 34.9514 21.737 35.0324C21.9847 35.1153 22.2324 35.1979 22.4803 35.2801C22.839 35.3991 23.1975 35.5187 23.5559 35.6384C23.667 35.6753 23.7781 35.7121 23.8925 35.75C23.9953 35.7846 24.098 35.8191 24.2038 35.8547C24.2942 35.8849 24.3846 35.9151 24.4777 35.9462C24.7072 36.0352 24.7072 36.0352 25.0002 36.2305C25.0354 36.4838 25.0354 36.4838 25.0334 36.8084C25.0334 36.9296 25.0334 37.0509 25.0334 37.1757C25.0319 37.3085 25.0304 37.4412 25.0288 37.574C25.0282 37.7095 25.0278 37.8449 25.0275 37.9804C25.0264 38.3372 25.0235 38.6939 25.0203 39.0506C25.0173 39.4145 25.016 39.7785 25.0145 40.1424C25.0113 40.8567 25.0063 41.5709 25.0002 42.2852C24.3755 42.2236 23.8132 42.0374 23.2201 41.8373C23.1118 41.8013 23.0034 41.7652 22.8917 41.7281C22.5348 41.6091 22.1781 41.4894 21.8214 41.3696C21.5733 41.2868 21.3251 41.2039 21.0769 41.1211C20.5576 40.9478 20.0384 40.7741 19.5193 40.6C18.8527 40.3765 18.1859 40.1537 17.519 39.9311C16.884 39.7191 16.249 39.5068 15.6141 39.2944C15.4924 39.2538 15.3707 39.2131 15.2453 39.1712C14.9025 39.0565 14.5598 38.9417 14.2171 38.8268C14.0636 38.7755 14.0636 38.7755 13.907 38.7231C13.814 38.6919 13.7211 38.6607 13.6253 38.6285C13.5443 38.6014 13.4633 38.5742 13.3798 38.5463C13.1838 38.4766 13.1838 38.4766 12.9885 38.3789C12.9499 38.2106 12.9499 38.2106 12.9301 37.9894C12.9186 37.8661 12.9186 37.8661 12.9068 37.7402C12.8959 37.6062 12.8959 37.6062 12.8847 37.4695C12.8766 37.378 12.8685 37.2865 12.8601 37.1922C12.7992 36.4766 12.7574 35.7605 12.7289 35.0428C12.7137 34.6745 12.6902 34.3121 12.644 33.9462C12.5921 33.4405 12.5978 32.9302 12.5978 32.4219Z" fill="#ECEBEF"/>
<path d="M25 26.4648C27.2881 26.4648 29.5762 26.4648 31.9336 26.4648C31.9336 27.5636 31.9336 27.5636 31.8993 28.0462C31.888 28.2081 31.888 28.2081 31.8765 28.3732C31.8683 28.4865 31.8601 28.5999 31.8516 28.7167C31.8431 28.8363 31.8347 28.9559 31.826 29.0792C31.8082 29.3309 31.7902 29.5826 31.7721 29.8343C31.7445 30.217 31.7174 30.5997 31.6904 30.9824C31.673 31.2281 31.6555 31.4739 31.638 31.7196C31.6259 31.8893 31.6259 31.8893 31.6136 32.0625C31.5649 32.7364 31.5092 33.4093 31.4453 34.082C31.3288 34.1199 31.2124 34.1577 31.0924 34.1967C30.6495 34.3406 30.2067 34.4846 29.7639 34.6286C29.5742 34.6903 29.3846 34.7519 29.1949 34.8135C28.9182 34.9034 28.6416 34.9934 28.3649 35.0834C28.2733 35.1132 28.1816 35.143 28.0871 35.1737C27.6094 35.3295 27.1323 35.4869 26.6561 35.6472C26.5144 35.6948 26.5144 35.6948 26.3698 35.7434C26.1892 35.8042 26.0088 35.8653 25.8284 35.9267C25.7077 35.9673 25.7077 35.9673 25.5847 36.0088C25.4786 36.0448 25.4786 36.0448 25.3704 36.0816C25.1953 36.1328 25.1953 36.1328 25 36.1328C25 32.9424 25 29.752 25 26.4648Z" fill="#FE4B00"/>
<path d="M17.0898 13.2812C19.7002 13.2812 22.3105 13.2812 25 13.2812C25 15.6982 25 18.1152 25 20.6055C22.5508 20.6055 20.1016 20.6055 17.5781 20.6055C17.5137 19.542 17.4492 18.4785 17.3828 17.3828C17.3181 16.7317 17.253 16.0807 17.1875 15.4297C17.1553 14.7207 17.123 14.0117 17.0898 13.2812Z" fill="#FE7816"/>
</g>
<defs>
<clipPath id="clip0_143_5">
<rect width="50" height="50" fill="white"/>
</clipPath>
</defs>
</svg>
