<svg width="50" height="50" viewBox="0 0 50 50" fill="none" xmlns="http://www.w3.org/2000/svg">
<g clip-path="url(#clip0_143_26)">
<path d="M3.35799 -0.0136675C3.43359 -0.0139557 3.50918 -0.0142439 3.58707 -0.0145409C3.84305 -0.0153939 4.09903 -0.0155443 4.35501 -0.0157008C4.53932 -0.0161625 4.72363 -0.0166655 4.90793 -0.0172064C5.4165 -0.0185681 5.92507 -0.0193061 6.43364 -0.0199382C6.86932 -0.0205593 7.30501 -0.0215428 7.74069 -0.022532C9.17627 -0.0257899 10.6119 -0.0278885 12.0474 -0.0296804C12.421 -0.0301484 12.7946 -0.0306351 13.1682 -0.0311262C15.4863 -0.0341503 17.8044 -0.0367577 20.1224 -0.0383937C20.6596 -0.0387782 21.1968 -0.03917 21.734 -0.039568C21.8007 -0.039617 21.8675 -0.039666 21.9362 -0.0397165C24.1008 -0.0413203 26.2654 -0.0450766 28.43 -0.0500453C30.7175 -0.0552864 33.005 -0.0583853 35.2925 -0.0591161C36.5398 -0.0595721 37.7872 -0.0610208 39.0345 -0.0649505C40.0965 -0.0682921 41.1585 -0.0696646 42.2205 -0.0684247C42.7627 -0.0678538 43.3049 -0.0682463 43.8471 -0.0711756C44.343 -0.0738334 44.8389 -0.0738099 45.3349 -0.071614C45.5147 -0.0712974 45.6945 -0.0719808 45.8743 -0.0737427C46.1181 -0.0759875 46.3616 -0.0746473 46.6053 -0.0723855C46.6757 -0.0738968 46.7462 -0.0754082 46.8187 -0.0769653C47.2042 -0.0690277 47.3552 -0.00709844 47.6488 0.248649C48.0415 0.80048 47.9617 1.46257 47.8978 2.1032C47.8911 2.17329 47.8843 2.24337 47.8774 2.31557C47.8546 2.54937 47.8306 2.78301 47.8067 3.01668C47.7899 3.18638 47.7732 3.35608 47.7566 3.52579C47.7108 3.99135 47.6638 4.4568 47.6168 4.92224C47.5661 5.42451 47.5165 5.92688 47.4668 6.42924C47.3692 7.41305 47.2706 8.39677 47.1718 9.38045C47.0567 10.5259 46.9425 11.6715 46.8284 12.817C46.6247 14.861 46.4201 16.9049 46.215 18.9487C46.0161 20.932 45.8178 22.9154 45.6202 24.8989C45.4051 27.0586 45.1897 29.2183 44.9736 31.3779C44.9505 31.6082 44.9275 31.8384 44.9044 32.0687C44.8931 32.182 44.8817 32.2953 44.8701 32.4121C44.7902 33.2106 44.7105 34.0092 44.631 34.8077C44.534 35.7809 44.4366 36.754 44.3387 37.7271C44.2887 38.2236 44.239 38.7201 44.1897 39.2167C44.1446 39.6713 44.0989 40.1258 44.0529 40.5803C44.0363 40.7447 44.0199 40.9091 44.0038 41.0736C43.9817 41.2972 43.959 41.5208 43.9361 41.7444C43.9237 41.8686 43.9112 41.9928 43.8984 42.1207C43.8037 42.7933 43.7259 43.3084 43.1642 43.75C42.8858 43.8911 42.8858 43.8911 42.5749 44.0056C42.4566 44.05 42.3383 44.0943 42.2164 44.14C42.0861 44.1873 41.9559 44.2345 41.8256 44.2818C41.6878 44.3328 41.5501 44.3841 41.4124 44.4354C41.1165 44.5454 40.8202 44.6546 40.5237 44.7632C40.0528 44.9356 39.5826 45.1097 39.1125 45.2842C38.6215 45.4664 38.1304 45.6484 37.6391 45.8297C36.4897 46.2539 35.3419 46.6818 34.195 47.1126C34.0775 47.1568 34.0775 47.1568 33.9575 47.2019C33.5694 47.3477 33.1814 47.4935 32.7933 47.6394C32.3547 47.8043 31.916 47.969 31.4773 48.1337C31.4079 48.1598 31.3385 48.1858 31.267 48.2127C30.9286 48.3397 30.5901 48.4664 30.2515 48.5926C30.1214 48.6411 29.9914 48.6896 29.8613 48.7381C29.798 48.7617 29.7347 48.7854 29.6695 48.8097C29.2899 48.9517 28.9116 49.0965 28.534 49.2438C28.3518 49.3147 28.1693 49.3848 27.9867 49.455C27.765 49.5402 27.5438 49.6267 27.3232 49.7146C27.2242 49.7524 27.1252 49.7902 27.0231 49.8291C26.9384 49.8622 26.8537 49.8954 26.7664 49.9296C25.6685 50.1859 24.7243 49.7908 23.6925 49.4414C23.5115 49.3813 23.3305 49.3213 23.1494 49.2615C22.6597 49.0992 22.1706 48.935 21.6816 48.7705C21.1691 48.5984 20.6561 48.4277 20.1431 48.2569C19.2821 47.9699 18.4215 47.6817 17.5612 47.3929C16.567 47.0591 15.5723 46.727 14.5773 46.3957C13.6191 46.0767 12.6612 45.7567 11.7034 45.4362C11.2963 45.3 10.889 45.164 10.4816 45.0283C10.002 44.8685 9.5227 44.7078 9.04361 44.5464C8.8679 44.4874 8.69209 44.4287 8.51617 44.3702C8.27581 44.2904 8.03584 44.2094 7.79594 44.1282C7.72649 44.1054 7.65705 44.0826 7.5855 44.0591C6.93889 43.8377 6.46209 43.5926 6.15244 42.9687C6.08975 42.6474 6.08975 42.6474 6.05233 42.2737C6.04507 42.2045 6.03781 42.1353 6.03032 42.064C6.00623 41.8316 5.98387 41.599 5.9615 41.3665C5.94443 41.1983 5.92725 41.0301 5.90998 40.862C5.86279 40.3995 5.81711 39.9369 5.77168 39.4742C5.72242 38.9754 5.67178 38.4767 5.62131 37.9779C5.52262 37.0005 5.42523 36.0229 5.32828 35.0453C5.21529 33.9064 5.10105 32.7677 4.98678 31.6289C4.78284 29.5961 4.58008 27.5633 4.37796 25.5303C4.18196 23.559 3.98506 21.5877 3.78716 19.6165C3.57167 17.4701 3.35663 15.3236 3.14242 13.177C3.13107 13.0634 3.11973 12.9497 3.10805 12.8326C3.08527 12.6044 3.06249 12.3761 3.03972 12.1478C2.96055 11.3547 2.88108 10.5616 2.80151 9.76856C2.70444 8.80083 2.6079 7.83305 2.51204 6.8652C2.46315 6.37172 2.41404 5.87826 2.36429 5.38486C2.31868 4.93237 2.27375 4.47983 2.22934 4.02723C2.21324 3.86428 2.19689 3.70135 2.18028 3.53845C2.10241 2.77386 2.03523 2.0096 2.01685 1.24097C2.01371 1.12626 2.01056 1.01154 2.00732 0.893352C2.06009 0.520907 2.18079 0.363317 2.4415 0.0976419C2.73478 -0.0489976 3.03632 -0.0140703 3.35799 -0.0136675Z" fill="#FDC006"/>
<path d="M3.35799 -0.0136675C3.43359 -0.0139557 3.50918 -0.0142439 3.58707 -0.0145409C3.84305 -0.0153939 4.09903 -0.0155443 4.35501 -0.0157008C4.53932 -0.0161625 4.72363 -0.0166655 4.90793 -0.0172064C5.4165 -0.0185681 5.92507 -0.0193061 6.43364 -0.0199382C6.86932 -0.0205593 7.30501 -0.0215428 7.74069 -0.022532C9.17627 -0.0257899 10.6119 -0.0278885 12.0474 -0.0296804C12.421 -0.0301484 12.7946 -0.0306351 13.1682 -0.0311262C15.4863 -0.0341503 17.8044 -0.0367577 20.1224 -0.0383937C20.6596 -0.0387782 21.1968 -0.03917 21.734 -0.039568C21.8007 -0.039617 21.8675 -0.039666 21.9362 -0.0397165C24.1008 -0.0413203 26.2654 -0.0450766 28.43 -0.0500453C30.7175 -0.0552864 33.005 -0.0583853 35.2925 -0.0591161C36.5398 -0.0595721 37.7872 -0.0610208 39.0345 -0.0649505C40.0965 -0.0682921 41.1585 -0.0696646 42.2205 -0.0684247C42.7627 -0.0678538 43.3049 -0.0682463 43.8471 -0.0711756C44.343 -0.0738334 44.8389 -0.0738099 45.3349 -0.071614C45.5147 -0.0712974 45.6945 -0.0719808 45.8743 -0.0737427C46.1181 -0.0759875 46.3616 -0.0746473 46.6053 -0.0723855C46.6757 -0.0738968 46.7462 -0.0754082 46.8187 -0.0769653C47.2042 -0.0690277 47.3552 -0.00709844 47.6488 0.248649C48.0415 0.80048 47.9617 1.46257 47.8978 2.1032C47.8911 2.17329 47.8843 2.24337 47.8774 2.31557C47.8546 2.54937 47.8306 2.78301 47.8067 3.01668C47.7899 3.18638 47.7732 3.35608 47.7566 3.52579C47.7108 3.99135 47.6638 4.4568 47.6168 4.92224C47.5661 5.42451 47.5165 5.92688 47.4668 6.42924C47.3692 7.41305 47.2706 8.39677 47.1718 9.38045C47.0567 10.5259 46.9425 11.6715 46.8284 12.817C46.6247 14.861 46.4201 16.9049 46.215 18.9487C46.0161 20.932 45.8178 22.9154 45.6202 24.8989C45.4051 27.0586 45.1897 29.2183 44.9736 31.3779C44.9505 31.6082 44.9275 31.8384 44.9044 32.0687C44.8931 32.182 44.8817 32.2953 44.8701 32.4121C44.7902 33.2106 44.7105 34.0092 44.631 34.8077C44.534 35.7809 44.4366 36.754 44.3387 37.7271C44.2887 38.2236 44.239 38.7201 44.1897 39.2167C44.1446 39.6713 44.0989 40.1258 44.0529 40.5803C44.0363 40.7447 44.0199 40.9091 44.0038 41.0736C43.9817 41.2972 43.959 41.5208 43.9361 41.7444C43.9237 41.8686 43.9112 41.9928 43.8984 42.1207C43.8037 42.7933 43.7259 43.3084 43.1642 43.75C42.8858 43.8911 42.8858 43.8911 42.5749 44.0056C42.4566 44.05 42.3383 44.0943 42.2164 44.14C42.0861 44.1873 41.9559 44.2345 41.8256 44.2818C41.6878 44.3328 41.5501 44.3841 41.4124 44.4354C41.1165 44.5454 40.8202 44.6546 40.5237 44.7632C40.0528 44.9356 39.5826 45.1097 39.1125 45.2842C38.6215 45.4664 38.1304 45.6484 37.6391 45.8297C36.4897 46.2539 35.3419 46.6818 34.195 47.1126C34.0775 47.1568 34.0775 47.1568 33.9575 47.2019C33.5694 47.3477 33.1814 47.4935 32.7933 47.6394C32.3547 47.8043 31.916 47.969 31.4773 48.1337C31.4079 48.1598 31.3385 48.1858 31.267 48.2127C30.9286 48.3397 30.5901 48.4664 30.2515 48.5926C30.1214 48.6411 29.9914 48.6896 29.8613 48.7381C29.798 48.7617 29.7347 48.7854 29.6695 48.8097C29.2899 48.9517 28.9116 49.0965 28.534 49.2438C28.3518 49.3147 28.1693 49.3848 27.9867 49.455C27.765 49.5402 27.5438 49.6267 27.3232 49.7146C27.2242 49.7524 27.1252 49.7902 27.0231 49.8291C26.9384 49.8622 26.8537 49.8954 26.7664 49.9296C25.6685 50.1859 24.7243 49.7908 23.6925 49.4414C23.5115 49.3813 23.3305 49.3213 23.1494 49.2615C22.6597 49.0992 22.1706 48.935 21.6816 48.7705C21.1691 48.5984 20.6561 48.4277 20.1431 48.2569C19.2821 47.9699 18.4215 47.6817 17.5612 47.3929C16.567 47.0591 15.5723 46.727 14.5773 46.3957C13.6191 46.0767 12.6612 45.7567 11.7034 45.4362C11.2963 45.3 10.889 45.164 10.4816 45.0283C10.002 44.8685 9.5227 44.7078 9.04361 44.5464C8.8679 44.4874 8.69209 44.4287 8.51617 44.3702C8.27581 44.2904 8.03584 44.2094 7.79594 44.1282C7.72649 44.1054 7.65705 44.0826 7.5855 44.0591C6.93889 43.8377 6.46209 43.5926 6.15244 42.9687C6.08975 42.6474 6.08975 42.6474 6.05233 42.2737C6.04507 42.2045 6.03781 42.1353 6.03032 42.064C6.00623 41.8316 5.98387 41.599 5.9615 41.3665C5.94443 41.1983 5.92725 41.0301 5.90998 40.862C5.86279 40.3995 5.81711 39.9369 5.77168 39.4742C5.72242 38.9754 5.67178 38.4767 5.62131 37.9779C5.52262 37.0005 5.42523 36.0229 5.32828 35.0453C5.21529 33.9064 5.10105 32.7677 4.98678 31.6289C4.78284 29.5961 4.58008 27.5633 4.37796 25.5303C4.18196 23.559 3.98506 21.5877 3.78716 19.6165C3.57167 17.4701 3.35663 15.3236 3.14242 13.177C3.13107 13.0634 3.11973 12.9497 3.10805 12.8326C3.08527 12.6044 3.06249 12.3761 3.03972 12.1478C2.96055 11.3547 2.88108 10.5616 2.80151 9.76856C2.70444 8.80083 2.6079 7.83305 2.51204 6.8652C2.46315 6.37172 2.41404 5.87826 2.36429 5.38486C2.31868 4.93237 2.27375 4.47983 2.22934 4.02723C2.21324 3.86428 2.19689 3.70135 2.18028 3.53845C2.10241 2.77386 2.03523 2.0096 2.01685 1.24097C2.01371 1.12626 2.01056 1.01154 2.00732 0.893352C2.06009 0.520907 2.18079 0.363317 2.4415 0.0976419C2.73478 -0.0489976 3.03632 -0.0140703 3.35799 -0.0136675ZM4.19931 2.05077C4.43034 4.41883 4.66159 6.7868 4.89834 9.15429C4.94733 9.64431 4.99626 10.1343 5.04519 10.6244C5.13451 11.5189 5.2239 12.4134 5.3133 13.3078C5.36933 13.8684 5.42534 14.4289 5.48135 14.9894C5.63714 16.5486 5.79296 18.1078 5.94884 19.6669C5.95873 19.7658 5.96861 19.8647 5.9788 19.9665C5.9887 20.0656 5.99861 20.1647 6.00881 20.2667C6.02887 20.4674 6.04893 20.668 6.06899 20.8687C6.07894 20.9682 6.08889 21.0677 6.09914 21.1702C6.26107 22.7899 6.42287 24.4096 6.58461 26.0293C6.75159 27.7014 6.91867 29.3735 7.08587 31.0455C7.17939 31.9808 7.27286 32.916 7.3662 33.8513C7.44546 34.6453 7.52481 35.4394 7.60429 36.2334C7.64474 36.6375 7.68514 37.0416 7.72542 37.4457C7.73681 37.56 7.73681 37.56 7.74844 37.6766C7.76336 37.8261 7.77825 37.9757 7.79312 38.1253C7.82775 38.4726 7.86296 38.8199 7.8997 39.167C7.95668 39.7081 8.01173 40.2471 8.04074 40.7904C8.05379 41.4752 8.05379 41.4752 8.35369 42.0594C8.5938 42.1786 8.82002 42.2279 9.08213 42.2851C9.2605 42.3468 9.43881 42.4086 9.61623 42.4729C9.97576 42.6023 10.3387 42.7219 10.7009 42.8436C10.8641 42.8987 11.0274 42.954 11.1906 43.0092C11.7235 43.1894 12.2567 43.3687 12.79 43.5478C12.9742 43.6097 13.1584 43.6716 13.3425 43.7336C14.1085 43.991 14.8745 44.2481 15.6407 44.5047C16.7365 44.8715 17.8317 45.2398 18.9263 45.6102C19.6976 45.8711 20.4695 46.1303 21.2418 46.3883C21.7024 46.5422 22.1628 46.6968 22.6227 46.8533C23.0549 47.0003 23.4877 47.1452 23.9212 47.2885C24.0798 47.3414 24.2382 47.395 24.3963 47.4494C25.5167 47.8543 25.5167 47.8543 26.6603 47.6562C26.7639 47.6225 26.8676 47.5888 26.9744 47.5541C27.071 47.5174 27.1675 47.4807 27.267 47.4428C27.3794 47.4004 27.4918 47.358 27.6076 47.3143C27.7294 47.2677 27.8511 47.2211 27.9729 47.1744C28.1035 47.1249 28.2342 47.0755 28.3648 47.0261C28.6451 46.92 28.9252 46.8135 29.2053 46.7068C29.6499 46.5373 30.0948 46.3686 30.5398 46.2001C30.6931 46.142 30.8463 46.084 30.9996 46.0259C31.0764 45.9968 31.1533 45.9678 31.2324 45.9378C31.4692 45.8481 31.7059 45.7583 31.9426 45.6685C33.082 45.2363 34.2224 44.807 35.3635 44.3794C35.4434 44.3495 35.5233 44.3195 35.6056 44.2887C36.0788 44.1114 36.5521 43.9342 37.0253 43.757C37.6174 43.5353 38.2095 43.3136 38.8016 43.0917C38.9964 43.0187 39.1912 42.9458 39.386 42.8729C40.1587 42.5834 40.9297 42.2897 41.6993 41.9922C41.7087 41.9025 41.7087 41.9025 41.7183 41.8111C41.7864 41.1609 41.8546 40.5108 41.9228 39.8607C41.9479 39.6214 41.973 39.3822 41.9981 39.1429C42.1245 37.9357 42.2512 36.7286 42.385 35.5222C42.7437 32.2821 43.0682 29.0387 43.3911 25.7949C43.4469 25.2344 43.5028 24.674 43.5587 24.1136C43.5667 24.0328 43.5748 23.952 43.5831 23.8687C43.5995 23.7043 43.6159 23.54 43.6323 23.3757C43.7843 21.852 43.9361 20.3282 44.0878 18.8045C44.2178 17.4989 44.348 16.1934 44.4783 14.8878C44.6307 13.362 44.7829 11.8362 44.9349 10.3104C44.9511 10.148 44.9672 9.98561 44.9834 9.82323C44.9914 9.74337 44.9993 9.66352 45.0075 9.58124C45.0634 9.01986 45.1195 8.45848 45.1756 7.89712C45.2437 7.2157 45.3116 6.53426 45.3793 5.8528C45.4138 5.50559 45.4483 5.15839 45.4831 4.81121C45.5208 4.43532 45.558 4.0594 45.5953 3.68347C45.6119 3.51864 45.6119 3.51864 45.6288 3.35048C45.6387 3.24988 45.6486 3.14929 45.6588 3.04565C45.6675 2.95897 45.6761 2.8723 45.685 2.783C45.7032 2.53953 45.7032 2.29492 45.7032 2.05077C32.0069 2.05077 18.3106 2.05077 4.19931 2.05077Z" fill="#030200"/>
<path d="M28.7247 10.3638C28.8878 10.3625 28.8878 10.3625 29.0541 10.3612C29.4128 10.3592 29.7712 10.3621 30.1299 10.3653C30.3794 10.3653 30.629 10.3651 30.8785 10.3647C31.4013 10.3646 31.924 10.3667 32.4468 10.3708C33.0502 10.3755 33.6536 10.376 34.2571 10.3742C34.8388 10.3726 35.4205 10.3738 36.0022 10.3763C36.2492 10.3771 36.4962 10.3772 36.7432 10.3767C37.0885 10.3764 37.4336 10.3792 37.7789 10.3829C37.8809 10.3822 37.9829 10.3816 38.088 10.3809C38.5376 10.3888 38.8632 10.3961 39.2219 10.6853C39.4835 10.9707 39.5447 11.0445 39.5706 11.4263C39.5464 11.8997 39.4469 12.3267 39.3294 12.7846C39.3065 12.8756 39.2836 12.9667 39.26 13.0606C39.2114 13.2522 39.1625 13.4438 39.1132 13.6352C39.0381 13.9276 38.9653 14.2204 38.8926 14.5134C38.8451 14.7001 38.7974 14.8867 38.7496 15.0734C38.7281 15.1606 38.7066 15.2478 38.6845 15.3376C38.5608 15.8086 38.4388 16.1493 38.0858 16.5039C37.7467 16.6734 37.3815 16.6603 37.0116 16.6015C36.7425 16.3885 36.5784 16.2234 36.4257 15.9179C36.4257 14.7561 36.8275 13.6272 37.1093 12.5C34.4667 12.5 31.8241 12.5 29.1014 12.5C29.1014 15.9482 29.1014 19.3965 29.1014 22.9492C31.614 22.9299 31.614 22.9299 34.1266 22.9052C34.6137 22.903 34.6137 22.903 34.842 22.9026C35.0008 22.9018 35.1595 22.9001 35.3182 22.8976C35.5594 22.8941 35.8004 22.8936 36.0416 22.8938C36.1117 22.892 36.1819 22.8903 36.2542 22.8884C36.6285 22.8923 36.8648 22.9517 37.1533 23.1811C37.4022 23.4375 37.4022 23.4375 37.473 23.6886C37.4385 24.6514 37.2644 25.5785 37.0768 26.5219C36.9742 27.0375 36.8755 27.5538 36.7762 28.07C36.7555 28.1775 36.7347 28.2849 36.7133 28.3955C36.4563 29.731 36.2243 31.0708 35.992 32.4107C35.8785 33.0659 35.7631 33.7207 35.6444 34.375C35.6314 34.4479 35.6184 34.5208 35.605 34.596C35.5706 34.7858 35.5339 34.9752 35.4972 35.1646C35.4781 35.2641 35.4591 35.3636 35.4395 35.4661C35.3282 35.815 35.1969 36.0468 34.9608 36.3281C34.7169 36.4488 34.5133 36.531 34.2566 36.6073C34.187 36.6299 34.1174 36.6525 34.0457 36.6757C33.8183 36.749 33.5901 36.8193 33.3617 36.8896C33.2036 36.9398 33.0456 36.9902 32.8876 37.0408C32.6457 37.1182 32.4038 37.1953 32.1616 37.2716C31.6354 37.4375 31.1128 37.6116 30.5918 37.7929C30.4592 37.8388 30.3266 37.8846 30.1939 37.9304C29.9476 38.0155 29.7019 38.1018 29.4563 38.1888C28.8252 38.4043 28.3046 38.549 27.6366 38.4765C27.3436 38.2385 27.3436 38.2385 27.1483 37.9883C27.1161 37.956 27.0839 37.9238 27.0507 37.8906C26.9956 37.3292 27.086 37.0558 27.4413 36.6211C27.7405 36.4627 27.7405 36.4627 28.1035 36.3396C28.1707 36.3162 28.238 36.2928 28.3073 36.2686C28.5388 36.1887 28.7712 36.112 29.0038 36.0351C29.1836 35.9741 29.3634 35.913 29.5432 35.8517C30.1274 35.6536 30.713 35.4597 31.2987 35.2661C31.5033 35.1982 31.7079 35.1303 31.9125 35.0624C32.4077 34.898 32.9029 34.734 33.3983 34.5703C33.418 34.4518 33.418 34.4518 33.4382 34.3309C33.7534 32.4457 34.089 30.565 34.442 28.6865C34.4607 28.5867 34.4795 28.4869 34.4988 28.3841C34.5533 28.0937 34.6081 27.8034 34.6629 27.5131C34.6787 27.429 34.6946 27.3448 34.7109 27.2581C34.8539 26.5043 35.0048 25.7522 35.1561 25C35.0642 25.0008 34.9723 25.0017 34.8776 25.0026C34.0112 25.0105 33.1448 25.0164 32.2783 25.0202C31.8329 25.0223 31.3875 25.025 30.9421 25.0294C30.5121 25.0337 30.0822 25.036 29.6522 25.037C29.4883 25.0378 29.3243 25.0392 29.1604 25.0413C28.9305 25.0441 28.7008 25.0445 28.471 25.0443C28.4033 25.0457 28.3357 25.0471 28.266 25.0486C27.9304 25.0457 27.7432 25.0056 27.4563 24.8263C27.1013 24.4601 27.0263 24.1858 27.0232 23.6796C27.0221 23.5699 27.021 23.4603 27.0198 23.3473C27.0196 23.2274 27.0194 23.1075 27.0192 22.984C27.0182 22.8574 27.0172 22.7308 27.0162 22.6004C27.0137 22.2533 27.0124 21.9063 27.0116 21.5592C27.011 21.3422 27.0102 21.1252 27.0093 20.9082C27.0066 20.2289 27.0048 19.5495 27.004 18.8702C27.0031 18.0868 26.9997 17.3035 26.994 16.5201C26.9898 15.914 26.9878 15.3079 26.9876 14.7018C26.9874 14.34 26.9862 13.9783 26.9827 13.6166C26.9789 13.2128 26.9798 12.8092 26.981 12.4054C26.9792 12.2862 26.9774 12.1669 26.9756 12.044C26.9805 11.5473 26.9879 11.1329 27.28 10.7168C27.6965 10.3193 28.1776 10.3548 28.7247 10.3638Z" fill="#010100"/>
<path d="M11.5595 10.4349C11.6709 10.4342 11.7822 10.4335 11.8969 10.4327C12.0196 10.4325 12.1423 10.4322 12.2687 10.4319C12.3975 10.4313 12.5263 10.4307 12.659 10.43C13.0129 10.4283 13.3668 10.4273 13.7207 10.4265C13.9418 10.426 14.1629 10.4254 14.3839 10.4247C15.0755 10.4229 15.7671 10.4215 16.4586 10.4207C17.2572 10.4197 18.0556 10.4172 18.8542 10.4132C19.4712 10.4103 20.0882 10.4088 20.7053 10.4085C21.0739 10.4083 21.4425 10.4074 21.8111 10.4049C22.1579 10.4027 22.5047 10.4022 22.8516 10.4033C23.0394 10.4033 23.2272 10.4015 23.415 10.3995C23.5832 10.4006 23.5832 10.4006 23.7548 10.4016C23.852 10.4014 23.9492 10.4011 24.0494 10.4009C24.3956 10.4636 24.5552 10.5954 24.8047 10.8398C24.9834 11.1326 25.0246 11.3508 25.0254 11.6917C25.0261 11.7847 25.0268 11.8776 25.0275 11.9734C25.0272 12.0752 25.027 12.177 25.0268 12.2819C25.0273 12.3903 25.0278 12.4987 25.0283 12.6104C25.0298 12.9749 25.0298 13.3394 25.0299 13.7039C25.0306 13.9647 25.0315 14.2255 25.0324 14.4863C25.0346 15.1957 25.0354 15.9051 25.0359 16.6145C25.0362 17.0575 25.0368 17.5004 25.0375 17.9433C25.0394 19.1696 25.041 20.3959 25.0413 21.6222C25.0413 21.7006 25.0414 21.7791 25.0414 21.8599C25.0414 22.019 25.0414 22.1781 25.0415 22.3372C25.0415 22.4162 25.0415 22.4951 25.0415 22.5765C25.0416 22.6951 25.0416 22.6951 25.0416 22.8161C25.0419 24.0976 25.0446 25.3791 25.0482 26.6606C25.0519 27.9763 25.0538 29.2919 25.0539 30.6075C25.0539 31.3463 25.0548 32.085 25.0576 32.8237C25.06 33.4526 25.0607 34.0815 25.0592 34.7105C25.0585 35.0314 25.0589 35.3522 25.0608 35.6731C25.0628 36.021 25.0618 36.3688 25.06 36.7167C25.0613 36.8181 25.0626 36.9195 25.0639 37.0239C25.0587 37.4712 25.0518 37.7902 24.7643 38.1471C24.3824 38.4975 24.1505 38.5115 23.6473 38.5056C23.0039 38.4449 22.3877 38.2409 21.7697 38.0596C21.6193 38.0164 21.4688 37.9733 21.3183 37.9304C21.0045 37.8404 20.691 37.7497 20.3777 37.6582C19.9773 37.5413 19.5764 37.4261 19.1753 37.3115C18.8652 37.2227 18.5552 37.1334 18.2454 37.0438C18.0976 37.0011 17.9498 36.9585 17.802 36.9161C17.5953 36.8567 17.3888 36.7964 17.1824 36.736C17.0066 36.6849 17.0066 36.6849 16.8273 36.6328C16.2729 36.4453 15.8824 36.2966 15.6079 35.7543C15.4485 35.344 15.3765 34.9185 15.3003 34.4864C15.2816 34.3862 15.2629 34.286 15.2436 34.1827C15.1844 33.8645 15.1269 33.5461 15.0696 33.2275C15.0108 32.9077 14.9516 32.5879 14.8924 32.2682C14.8557 32.0697 14.8194 31.8711 14.7835 31.6725C14.7671 31.5828 14.7508 31.4932 14.734 31.4008C14.7198 31.322 14.7055 31.2431 14.6909 31.1619C14.649 30.9397 14.649 30.9397 14.5508 30.6641C14.4851 29.9969 14.4851 29.9969 14.653 29.7051C14.8268 29.4934 14.9877 29.3225 15.2344 29.1992C15.6237 29.1618 15.8734 29.1804 16.2353 29.3335C16.7941 29.8669 16.8571 30.7996 16.9964 31.5376C17.0133 31.6251 17.0302 31.7126 17.0477 31.8028C17.1008 32.0782 17.1533 32.3538 17.2058 32.6294C17.242 32.8179 17.2783 33.0063 17.3147 33.1947C17.403 33.6532 17.4907 34.1117 17.5781 34.5703C17.6433 34.5874 17.7084 34.6046 17.7755 34.6222C19.0747 34.9649 20.3678 35.3195 21.6503 35.7205C21.7372 35.7475 21.824 35.7746 21.9135 35.8025C21.9889 35.8262 22.0643 35.85 22.1419 35.8745C22.3752 35.9409 22.6137 35.9876 22.8515 36.0352C22.8515 28.2686 22.8515 20.502 22.8515 12.5C19.0166 12.5 15.1816 12.5 11.2304 12.5C10.6445 12.207 10.6445 12.207 10.4492 11.9141C10.377 11.4656 10.3897 11.1304 10.6323 10.7422C10.9515 10.4417 11.1303 10.4367 11.5595 10.4349Z" fill="#040300"/>
<path d="M2.85034 0.0366188C2.93796 0.0668312 2.93796 0.0668312 3.02734 0.097654C2.7396 0.2735 2.45234 0.439611 2.14844 0.585935C2.29463 0.248563 2.43243 -0.0350226 2.85034 0.0366188Z" fill="#3E3301"/>
</g>
<defs>
<clipPath id="clip0_143_26">
<rect width="50" height="50" fill="white"/>
</clipPath>
</defs>
</svg>
