<svg width="103" height="93" viewBox="0 0 103 93" fill="none" xmlns="http://www.w3.org/2000/svg">
<path d="M12.571 56.2216C12.0085 56.2216 11.5256 56.0227 11.1222 55.625C10.7244 55.2216 10.5256 54.7386 10.5256 54.1761C10.5256 53.6193 10.7244 53.142 11.1222 52.7443C11.5256 52.3466 12.0085 52.1477 12.571 52.1477C13.1165 52.1477 13.5938 52.3466 14.0028 52.7443C14.4119 53.142 14.6165 53.6193 14.6165 54.1761C14.6165 54.5511 14.5199 54.8949 14.3267 55.2074C14.1392 55.5142 13.892 55.7614 13.5852 55.9489C13.2784 56.1307 12.9403 56.2216 12.571 56.2216Z" fill="white"/>
<path d="M89.571 41.2216C89.0085 41.2216 88.5256 41.0227 88.1222 40.625C87.7244 40.2216 87.5256 39.7386 87.5256 39.1761C87.5256 38.6193 87.7244 38.142 88.1222 37.7443C88.5256 37.3466 89.0085 37.1477 89.571 37.1477C90.1165 37.1477 90.5938 37.3466 91.0028 37.7443C91.4119 38.142 91.6165 38.6193 91.6165 39.1761C91.6165 39.5511 91.5199 39.8949 91.3267 40.2074C91.1392 40.5142 90.892 40.7614 90.5852 40.9489C90.2784 41.1307 89.9403 41.2216 89.571 41.2216Z" fill="white"/>
<path d="M92.7834 49.2186L91.422 49.1397L91.6557 45.1067L93.0171 45.1856L92.7834 49.2186ZM86.4291 45.7301L93.4358 46.1361C93.9094 46.1635 94.2969 46.2785 94.5982 46.4809C94.8993 46.6862 95.1185 46.955 95.2558 47.2873C95.393 47.6197 95.4497 47.9915 95.4259 48.4027C95.4098 48.6807 95.3738 48.9333 95.318 49.1605C95.262 49.3906 95.2136 49.5614 95.173 49.6729L93.8304 49.2707C93.8572 49.2011 93.8836 49.1144 93.9095 49.0106C93.9353 48.9097 93.9513 48.8053 93.9575 48.6975C93.973 48.431 93.9213 48.2416 93.8026 48.1294C93.6868 48.0174 93.5182 47.955 93.297 47.9422L86.3243 47.5382L86.4291 45.7301Z" fill="white"/>
<path d="M86.1296 49.8305L92.5638 51.0323L92.2407 52.7623L91.1181 52.5526L91.1055 52.6197C91.483 52.8115 91.7478 53.0648 91.9 53.3793C92.0551 53.6944 92.0989 54.032 92.0316 54.3923C92.0149 54.4816 91.9914 54.5769 91.9609 54.6782C91.9304 54.7794 91.8981 54.8673 91.864 54.9419L90.2805 54.6461C90.3213 54.567 90.3653 54.4553 90.4125 54.3109C90.4597 54.1666 90.4948 54.033 90.5177 53.9101C90.5667 53.6476 90.5533 53.4023 90.4774 53.1743C90.4038 52.9496 90.2777 52.7584 90.099 52.6007C89.9199 52.4459 89.699 52.344 89.4365 52.2949L85.7963 51.615L86.1296 49.8305Z" fill="white"/>
<path d="M84.2749 56.7843C84.5004 56.162 84.8277 55.6717 85.2567 55.3135C85.6874 54.9589 86.1849 54.7449 86.7494 54.6715C87.3166 54.599 87.9153 54.677 88.5456 54.9055C89.1813 55.1359 89.6923 55.4601 90.0787 55.8781C90.4677 56.2971 90.7127 56.7802 90.8135 57.3274C90.916 57.8783 90.8545 58.4648 90.629 59.0872C90.4034 59.7095 90.0753 60.1979 89.6446 60.5525C89.2157 60.9107 88.7176 61.1261 88.1504 61.1985C87.586 61.2719 86.9859 61.1935 86.3502 60.9631C85.7199 60.7346 85.2102 60.4109 84.8212 59.9919C84.4348 59.5739 84.1903 59.0894 84.0878 58.5386C83.987 57.9914 84.0493 57.4066 84.2749 56.7843ZM85.5941 57.2715C85.4915 57.5546 85.4859 57.82 85.5775 58.0677C85.6717 58.3164 85.8416 58.5396 86.0872 58.7374C86.3318 58.9379 86.633 59.103 86.9909 59.2327C87.3488 59.3624 87.6859 59.4287 88.0022 59.4315C88.3175 59.437 88.591 59.3744 88.8226 59.2438C89.0543 59.1132 89.2214 58.9064 89.324 58.6233C89.4276 58.3375 89.4332 58.0676 89.341 57.8136C89.2477 57.5622 89.0788 57.3363 88.8342 57.1358C88.5886 56.938 88.2868 56.7743 87.9289 56.6446C87.571 56.5149 87.2344 56.4473 86.9192 56.4418C86.6029 56.439 86.3285 56.5042 86.0958 56.6374C85.8649 56.7743 85.6977 56.9857 85.5941 57.2715Z" fill="white"/>
<path d="M85.1942 64.246L81.9648 62.2736L82.911 60.7244L88.497 64.1361L87.5952 65.6126L86.6097 65.0107L86.5697 65.0761C86.8191 65.3982 86.9494 65.7625 86.9609 66.1689C86.9747 66.5768 86.855 66.9881 86.6018 67.4026C86.3649 67.7906 86.0734 68.0769 85.7275 68.2618C85.3816 68.4467 85.0022 68.5228 84.5893 68.4904C84.1788 68.4594 83.7565 68.3113 83.3226 68.0463L79.7659 65.874L80.7121 64.3247L83.9924 66.3282C84.3328 66.5394 84.6528 66.615 84.9524 66.555C85.2544 66.4965 85.5002 66.3121 85.6898 66.0017C85.8171 65.7932 85.8848 65.5816 85.8928 65.3668C85.8994 65.1544 85.844 64.9508 85.7266 64.756C85.6102 64.565 85.4328 64.395 85.1942 64.246Z" fill="white"/>
<path d="M81.6164 73.7732L80.5847 72.8815L83.1622 69.8992L84.1939 70.7909L81.6164 73.7732ZM84.7952 72.4933L83.6082 73.8668L78.9912 69.8766C78.8644 69.767 78.7488 69.7009 78.6445 69.6783C78.5422 69.6576 78.4474 69.6695 78.3601 69.7141C78.2708 69.7609 78.1863 69.8305 78.1064 69.9229C78.0506 69.9874 78.0003 70.0566 77.9553 70.1303C77.9125 70.2059 77.8794 70.2637 77.8562 70.3037L76.6474 69.6364C76.6854 69.5491 76.7442 69.431 76.824 69.2822C76.9017 69.1315 77.0144 68.9642 77.1621 68.7802C77.4353 68.438 77.7301 68.1859 78.0466 68.0239C78.3613 67.864 78.6845 67.8073 79.0161 67.8536C79.3478 67.9 79.675 68.0645 79.9977 68.3471L84.7952 72.4933Z" fill="white"/>
<path d="M73.8163 71.9561C74.3321 71.5233 74.8637 71.2552 75.4111 71.1519C75.9582 71.0525 76.4935 71.1114 77.0169 71.3286C77.5422 71.548 78.0267 71.9221 78.4704 72.4509C78.9032 72.9667 79.183 73.5033 79.3096 74.0609C79.4363 74.6184 79.4092 75.1585 79.2284 75.6811C79.0454 76.2055 78.708 76.6741 78.2162 77.0868C77.8854 77.3643 77.5327 77.5694 77.1582 77.702C76.7832 77.8386 76.4006 77.8908 76.0102 77.8587C75.6176 77.8284 75.2272 77.7035 74.8391 77.4841C74.4528 77.2668 74.0807 76.9448 73.7227 76.5183L73.4023 76.1364L77.6361 72.5836L78.3593 73.4454L75.4344 75.8997C75.6024 76.0999 75.7948 76.2408 76.0115 76.3223C76.2282 76.4037 76.4503 76.4231 76.6779 76.3805C76.9051 76.3419 77.1199 76.2377 77.3223 76.0679C77.5334 75.8907 77.6794 75.6847 77.7605 75.4498C77.8412 75.219 77.8587 74.9836 77.8132 74.7436C77.7694 74.5059 77.6656 74.2871 77.5016 74.0872L76.814 73.2679C76.6058 73.0198 76.3803 72.8438 76.1373 72.7399C75.8921 72.6378 75.6436 72.609 75.3917 72.6535C75.1398 72.698 74.8974 72.8179 74.6645 73.0133C74.51 73.143 74.3868 73.2835 74.2949 73.4347C74.2031 73.586 74.1479 73.7435 74.1296 73.9072C74.1112 74.071 74.1311 74.2361 74.1891 74.4025L72.8318 75.3968C72.6377 75.033 72.5451 74.6509 72.5539 74.2504C72.5624 73.8538 72.6716 73.4581 72.8816 73.0631C73.0913 72.6721 73.4028 72.3031 73.8163 71.9561Z" fill="white"/>
<path d="M70.9013 78.8508L69.0858 75.5307L70.6786 74.6597L73.8189 80.4026L72.301 81.2327L71.7469 80.2195L71.6796 80.2563C71.7351 80.6598 71.6665 81.0405 71.4737 81.3985C71.2823 81.759 70.9734 82.0558 70.5472 82.2888C70.1484 82.5069 69.753 82.6098 69.3609 82.5975C68.9689 82.5853 68.602 82.4621 68.2603 82.228C67.92 81.9964 67.6278 81.6575 67.3839 81.2114L65.3843 77.5547L66.9771 76.6838L68.8212 80.0562C69.0109 80.4091 69.2506 80.6342 69.5402 80.7316C69.8312 80.8315 70.1363 80.7942 70.4553 80.6198C70.6697 80.5025 70.8339 80.3528 70.948 80.1707C71.0596 79.9898 71.1131 79.7857 71.1085 79.5583C71.1028 79.3348 71.0338 79.0989 70.9013 78.8508Z" fill="white"/>
<path d="M62.0557 78.6125C62.5308 78.4662 62.9988 78.4558 63.4595 78.5815C63.9185 78.7107 64.3342 78.9795 64.7067 79.388C65.0773 79.8 65.37 80.3549 65.5849 81.0527C65.8056 81.7694 65.8737 82.4009 65.7893 82.9472C65.7056 83.4961 65.5088 83.9476 65.1987 84.3017C64.8867 84.6593 64.5013 84.9088 64.0424 85.0501C63.6922 85.1579 63.3819 85.1881 63.1116 85.1405C62.8395 85.0965 62.6043 85.0084 62.406 84.8762C62.2059 84.7476 62.0419 84.6109 61.914 84.4659L61.8611 84.4822L62.8267 87.6182L61.0959 88.1512L58.5275 79.8104L60.238 79.2837L60.5465 80.2855L60.6198 80.263C60.6478 80.0641 60.7101 79.8562 60.8067 79.6391C60.9015 79.4256 61.0499 79.2269 61.2518 79.0428C61.451 78.8596 61.719 78.7162 62.0557 78.6125ZM61.931 80.1624C61.6513 80.2485 61.4385 80.3973 61.2926 80.6087C61.1447 80.8236 61.0619 81.0855 61.044 81.3942C61.0234 81.7037 61.0703 82.0445 61.1849 82.4165C61.2994 82.7884 61.4505 83.0956 61.6381 83.3381C61.8257 83.5806 62.0403 83.7464 62.2817 83.8355C62.5232 83.9246 62.7838 83.9261 63.0634 83.84C63.3485 83.7522 63.565 83.6009 63.7128 83.3859C63.8606 83.1709 63.9425 82.9109 63.9586 82.6057C63.9746 82.3006 63.927 81.9674 63.8158 81.6063C63.7038 81.2425 63.5545 80.9362 63.3679 80.6875C63.1794 80.4423 62.9646 80.2707 62.7233 80.1726C62.4802 80.078 62.2161 80.0746 61.931 80.1624Z" fill="white"/>
<path d="M53.9279 84.7386L53.7507 83.3092L57.7006 82.8196L57.8778 84.249L53.9279 84.7386Z" fill="white"/>
<path d="M50.0212 89.2217L50.0886 80.4947L51.9039 80.5087L51.8365 89.2357L50.0212 89.2217Z" fill="white"/>
<path d="M45.6196 79.98C46.2849 80.0833 46.8367 80.307 47.2749 80.651C47.7099 80.9974 48.0179 81.4391 48.199 81.9761C48.3797 82.5159 48.4171 83.1269 48.3112 83.809C48.2079 84.4744 47.9881 85.0382 47.6519 85.5006C47.3156 85.963 46.8912 86.2982 46.3788 86.5062C45.8636 86.7137 45.2888 86.7682 44.6544 86.6697C44.2276 86.6034 43.8411 86.473 43.4947 86.2783C43.1451 86.0861 42.8538 85.8324 42.621 85.5174C42.3853 85.2019 42.2223 84.8259 42.132 84.3892C42.0412 83.9554 42.0386 83.4634 42.124 82.9132L42.2005 82.4205L47.662 83.2684L47.4894 84.3801L43.7165 83.7943C43.6764 84.0526 43.697 84.2901 43.7783 84.5068C43.8597 84.7236 43.9913 84.9036 44.1732 85.0468C44.3518 85.1924 44.5717 85.2855 44.8328 85.326C45.1051 85.3683 45.3563 85.3426 45.5865 85.249C45.8134 85.1577 46.0021 85.016 46.1527 84.8237C46.3029 84.6343 46.3992 84.4121 46.4417 84.157L46.6058 83.1001C46.6554 82.7801 46.6394 82.4944 46.5577 82.2431C46.4731 81.9913 46.3312 81.7853 46.1318 81.625C45.9325 81.4647 45.6826 81.3612 45.3822 81.3145C45.1829 81.2836 44.9961 81.2833 44.8217 81.3138C44.6474 81.3442 44.4926 81.4064 44.3572 81.5004C44.2219 81.5944 44.1107 81.718 44.0236 81.8712L42.3815 81.5042C42.5277 81.1186 42.7543 80.7973 43.0616 80.5403C43.3656 80.2856 43.7355 80.1073 44.171 80.0053C44.6034 79.9056 45.0862 79.8972 45.6196 79.98Z" fill="white"/>
<path d="M34.7939 81.9173L36.393 82.3814C36.3718 82.5248 36.3862 82.6657 36.4361 82.8043C36.4851 82.9456 36.5703 83.0742 36.6918 83.1901C36.8096 83.3077 36.9674 83.402 37.1653 83.4729C37.4301 83.5677 37.6736 83.5915 37.8957 83.5443C38.1168 83.4998 38.2604 83.3853 38.3265 83.2008C38.3792 83.0537 38.3649 82.9082 38.2836 82.7644C38.2024 82.6206 38.0297 82.4667 37.7655 82.3027L36.7307 81.6786C36.1757 81.341 35.7999 80.9831 35.6034 80.6049C35.4069 80.2267 35.3882 79.8157 35.5472 79.3717C35.6919 78.9678 35.9378 78.6561 36.2851 78.4365C36.6296 78.2159 37.0385 78.0937 37.5117 78.0701C37.9813 78.0482 38.4835 78.133 39.0184 78.3246C39.8341 78.6168 40.4232 79.0194 40.7856 79.5325C41.1444 80.0472 41.2599 80.6137 41.1321 81.2317L39.4195 80.7179C39.4578 80.451 39.4028 80.217 39.2545 80.0161C39.1052 79.8177 38.8781 79.664 38.5732 79.5548C38.2737 79.4475 38.0124 79.4188 37.7893 79.4686C37.5626 79.5202 37.4149 79.6378 37.3461 79.8214C37.2932 79.9775 37.3133 80.128 37.4062 80.2729C37.4982 80.4205 37.6683 80.569 37.9166 80.7183L38.9076 81.3131C39.4662 81.649 39.8395 82.0181 40.0274 82.4203C40.2126 82.8216 40.2228 83.2523 40.058 83.7123C39.9162 84.1081 39.6871 84.4108 39.3706 84.6203C39.0515 84.8289 38.6689 84.9408 38.2229 84.9561C37.7741 84.9704 37.2863 84.8832 36.7595 84.6945C35.9812 84.4157 35.4276 84.0319 35.0988 83.5429C34.7673 83.053 34.6657 82.5111 34.7939 81.9173Z" fill="white"/>
<path d="M28.6238 78.5495L30.1177 79.2848C30.072 79.4222 30.0616 79.5635 30.0867 79.7087C30.1103 79.8563 30.1719 79.9978 30.2713 80.1331C30.3668 80.2694 30.5058 80.3897 30.6884 80.494C30.9326 80.6334 31.1682 80.6992 31.3951 80.6914C31.6207 80.6861 31.782 80.5983 31.8792 80.4281C31.9567 80.2924 31.9679 80.1467 31.9129 79.9909C31.8579 79.8352 31.7146 79.6536 31.483 79.4461L30.5726 78.6514C30.0848 78.2224 29.7771 77.8046 29.6494 77.398C29.5217 76.9914 29.5748 76.5833 29.8087 76.1738C30.0214 75.8013 30.3178 75.5371 30.698 75.3812C31.0757 75.224 31.4996 75.1748 31.9697 75.2339C32.4359 75.294 32.9157 75.465 33.4091 75.7467C34.1615 76.1764 34.6715 76.6754 34.9392 77.2437C35.2029 77.813 35.218 78.3909 34.9846 78.9773L33.3876 78.1733C33.4717 77.9171 33.4583 77.6772 33.3472 77.4534C33.2347 77.2322 33.0379 77.0413 32.7566 76.8807C32.4803 76.7229 32.228 76.6491 31.9997 76.6594C31.7675 76.6708 31.6015 76.7608 31.5019 76.9297C31.4226 77.0742 31.4161 77.2258 31.4824 77.3847C31.5473 77.5461 31.689 77.7219 31.9075 77.9121L32.7799 78.6703C33.2716 79.0983 33.5749 79.5267 33.6899 79.9555C33.8025 80.3829 33.7376 80.8088 33.4953 81.2331C33.2868 81.5982 33.0085 81.8564 32.6604 82.0077C32.3098 82.1576 31.9136 82.2012 31.4717 82.1386C31.0273 82.0746 30.5621 81.9038 30.0761 81.6263C29.3582 81.2164 28.8799 80.742 28.6412 80.2033C28.4 79.6632 28.3942 79.1119 28.6238 78.5495Z" fill="white"/>
<path d="M28.1667 72.0925C28.6707 72.5217 29.0153 72.9999 29.2006 73.5272C29.382 74.0548 29.4082 74.5958 29.2793 75.1502C29.1486 75.7068 28.8659 76.2404 28.4312 76.7508C27.9928 77.2656 27.5102 77.6307 26.9833 77.8462C26.4546 78.0639 25.9164 78.1242 25.3685 78.027C24.8166 77.9302 24.2887 77.6672 23.7847 77.238C23.2808 76.8089 22.9381 76.3305 22.7568 75.8029C22.5715 75.2757 22.5442 74.7337 22.6749 74.1771C22.8038 73.6227 23.0874 73.088 23.5258 72.5733C23.9605 72.0628 24.4422 71.6988 24.9709 71.4811C25.4977 71.2655 26.0371 71.2062 26.589 71.303C27.1368 71.4002 27.6627 71.6634 28.1667 72.0925ZM27.2485 73.1576C27.0192 72.9624 26.7725 72.8643 26.5084 72.8633C26.2425 72.8644 25.9739 72.9454 25.7027 73.1062C25.4292 73.2651 25.1691 73.4895 24.9223 73.7794C24.6755 74.0692 24.4954 74.3617 24.382 74.657C24.2664 74.9504 24.2293 75.2284 24.2705 75.4912C24.3117 75.7539 24.4469 75.9829 24.6762 76.1781C24.9076 76.3752 25.1585 76.475 25.4287 76.4775C25.6968 76.4782 25.9675 76.3991 26.241 76.2401C26.5122 76.0793 26.7713 75.854 27.0181 75.5642C27.2649 75.2744 27.4461 74.9827 27.5616 74.6893C27.675 74.3941 27.71 74.1142 27.6667 73.8496C27.6193 73.5854 27.4799 73.3547 27.2485 73.1576Z" fill="white"/>
<path d="M20.8638 70.3472L23.8407 68.0111L24.9614 69.4392L19.8122 73.4801L18.7441 72.119L19.6526 71.4061L19.6052 71.3457C19.2163 71.4668 18.8294 71.4616 18.4446 71.3302C18.0576 71.2006 17.7142 70.9447 17.4142 70.5625C17.1336 70.2049 16.9672 69.8318 16.9149 69.443C16.8627 69.0543 16.9239 68.6722 17.0987 68.2967C17.2713 67.923 17.5575 67.5791 17.9576 67.2652L21.2362 64.6923L22.3569 66.1204L19.3331 68.4933C19.0162 68.7384 18.8335 69.0118 18.785 69.3135C18.7342 69.6169 18.8211 69.9117 19.0456 70.1978C19.1964 70.39 19.371 70.5274 19.5695 70.61C19.7662 70.6903 19.9763 70.7096 20.1999 70.6678C20.4195 70.6255 20.6408 70.5186 20.8638 70.3472Z" fill="white"/>
<path d="M13.9717 61.0629L14.8273 62.4913C14.7143 62.5819 14.6289 62.695 14.5711 62.8305C14.5108 62.9674 14.4857 63.1196 14.4958 63.2871C14.5021 63.4535 14.5535 63.63 14.6503 63.8167C14.7797 64.0664 14.9419 64.2495 15.1367 64.3661C15.329 64.484 15.5122 64.4979 15.6862 64.4076C15.8249 64.3357 15.9134 64.2195 15.9518 64.0588C15.9901 63.8981 15.9683 63.6678 15.8864 63.3679L15.5531 62.2063C15.3763 61.5812 15.3446 61.0632 15.458 60.6525C15.5715 60.2417 15.8376 59.9277 16.2562 59.7107C16.6371 59.5133 17.0295 59.4523 17.4334 59.5278C17.8359 59.6007 18.2186 59.7895 18.5814 60.0942C18.9403 60.3978 19.2505 60.8018 19.512 61.3062C19.9107 62.0755 20.0683 62.7714 19.9846 63.3939C19.8971 64.0153 19.5961 64.5089 19.0818 64.8747L18.1769 63.3326C18.3866 63.1631 18.5055 62.9543 18.5337 62.7061C18.5593 62.4592 18.4976 62.192 18.3485 61.9045C18.2021 61.622 18.0302 61.4231 17.8329 61.3078C17.6317 61.1913 17.4434 61.1769 17.2681 61.2646C17.1231 61.3429 17.0353 61.4668 17.0048 61.6363C16.9717 61.807 16.9953 62.0316 17.0756 62.3099L17.3967 63.4202C17.5774 64.0465 17.5996 64.571 17.4635 64.9936C17.326 65.4136 17.0404 65.736 16.6065 65.9609C16.2333 66.1544 15.8594 66.2202 15.4849 66.1583C15.1091 66.0939 14.7527 65.9155 14.4155 65.6231C14.077 65.3282 13.779 64.9323 13.5215 64.4354C13.141 63.7014 12.9967 63.0434 13.0886 62.4614C13.1792 61.8769 13.4736 61.4107 13.9717 61.0629Z" fill="white"/>
<path d="M9.65044 43.3207L11.0117 43.401L10.7736 47.4338L9.41232 47.3534L9.65044 43.3207ZM16.0009 46.8161L8.99464 46.4024C8.52103 46.3745 8.13369 46.2591 7.83262 46.0563C7.53171 45.8507 7.31282 45.5817 7.17593 45.2492C7.03904 44.9167 6.98274 44.5448 7.00702 44.1336C7.02343 43.8557 7.05969 43.6031 7.11579 43.3759C7.17206 43.1459 7.22056 42.9751 7.26129 42.8637L8.60347 43.2674C8.5766 43.3369 8.55013 43.4236 8.52409 43.5274C8.49821 43.6283 8.48208 43.7326 8.47572 43.8404C8.45998 44.107 8.5114 44.2964 8.62999 44.4087C8.74574 44.5208 8.91422 44.5834 9.13542 44.5965L16.1077 45.0082L16.0009 46.8161Z" fill="white"/>
<path d="M16.3049 42.7161L9.87201 41.5072L10.197 39.7775L11.3194 39.9885L11.332 39.9214C10.9548 39.7292 10.6903 39.4756 10.5384 39.1609C10.3837 38.8457 10.3402 38.508 10.4079 38.1478C10.4247 38.0585 10.4484 37.9632 10.479 37.862C10.5095 37.7608 10.542 37.6729 10.5762 37.5984L12.1593 37.8959C12.1184 37.975 12.0743 38.0866 12.0269 38.2309C11.9796 38.3752 11.9444 38.5088 11.9213 38.6317C11.872 38.8941 11.8851 39.1394 11.9608 39.3675C12.0342 39.5923 12.1601 39.7837 12.3385 39.9415C12.5175 40.0965 12.7383 40.1987 13.0007 40.248L16.6401 40.9319L16.3049 42.7161Z" fill="white"/>
<path d="M18.1673 35.7643C17.9411 36.3864 17.6133 36.8763 17.1839 37.2341C16.7528 37.5882 16.255 37.8016 15.6904 37.8744C15.1232 37.9463 14.5246 37.8676 13.8945 37.6385C13.259 37.4074 12.7484 37.0826 12.3625 36.6641C11.9739 36.2447 11.7295 35.7613 11.6293 35.214C11.5274 34.663 11.5895 34.0765 11.8158 33.4545C12.042 32.8324 12.3706 32.3443 12.8017 31.9902C13.2311 31.6324 13.7294 31.4177 14.2966 31.3458C14.8612 31.273 15.4612 31.3522 16.0966 31.5833C16.7267 31.8124 17.236 32.1367 17.6246 32.5561C18.0105 32.9746 18.2544 33.4593 18.3563 34.0102C18.4565 34.5576 18.3935 35.1423 18.1673 35.7643ZM16.8486 35.2757C16.9516 34.9927 16.9574 34.7273 16.8661 34.4795C16.7722 34.2307 16.6026 34.0073 16.3572 33.8092C16.1128 33.6085 15.8117 33.4431 15.4539 33.313C15.0962 33.1828 14.7592 33.1162 14.4429 33.113C14.1276 33.1072 13.8541 33.1695 13.6223 33.2998C13.3905 33.4301 13.2231 33.6368 13.1202 33.9198C13.0163 34.2055 13.0104 34.4754 13.1023 34.7295C13.1953 34.9809 13.364 35.207 13.6084 35.4078C13.8538 35.6058 14.1553 35.7699 14.5131 35.9C14.8708 36.0301 15.2074 36.0981 15.5227 36.1039C15.8389 36.1071 16.1134 36.0422 16.3462 35.9092C16.5773 35.7725 16.7447 35.5614 16.8486 35.2757Z" fill="white"/>
<path d="M17.2562 28.3016L20.4834 30.2776L19.5355 31.8258L13.9533 28.4079L14.8567 26.9324L15.8416 27.5354L15.8816 27.47C15.6326 27.1477 15.5027 26.7833 15.4917 26.3768C15.4783 25.9689 15.5984 25.5578 15.8521 25.1434C16.0895 24.7558 16.3812 24.4697 16.7273 24.2853C17.0735 24.1008 17.453 24.025 17.8658 24.058C18.2763 24.0894 18.6984 24.2379 19.1321 24.5034L22.6863 26.6797L21.7384 28.2279L18.4603 26.2208C18.1202 26.0092 17.8003 25.9332 17.5006 25.9929C17.1985 26.0511 16.9525 26.2352 16.7626 26.5454C16.635 26.7537 16.5671 26.9653 16.5588 27.1801C16.552 27.3925 16.6072 27.5961 16.7243 27.7911C16.8405 27.9822 17.0178 28.1523 17.2562 28.3016Z" fill="white"/>
<path d="M20.8445 18.7785L21.8752 19.6713L19.2945 22.6508L18.2638 21.758L20.8445 18.7785ZM17.6643 20.0548L18.8528 18.6826L23.4654 22.6779C23.5921 22.7877 23.7076 22.8539 23.812 22.8766C23.9141 22.8975 24.009 22.8856 24.0964 22.8411C24.1857 22.7944 24.2703 22.7249 24.3503 22.6326C24.4061 22.5682 24.4565 22.4991 24.5016 22.4254C24.5445 22.3498 24.5776 22.292 24.601 22.2521L25.809 22.9207C25.7709 23.008 25.7119 23.126 25.6319 23.2748C25.5541 23.4254 25.4413 23.5926 25.2933 23.7764C25.0198 24.1182 24.7246 24.37 24.408 24.5317C24.0931 24.6912 23.7699 24.7476 23.4383 24.7009C23.1066 24.6542 22.7796 24.4893 22.4572 24.2063L17.6643 20.0548Z" fill="white"/>
<path d="M28.6426 20.6042C28.1264 21.0364 27.5945 21.3039 27.0469 21.4067C26.4997 21.5054 25.9645 21.4459 25.4413 21.2282C24.9163 21.0082 24.4322 20.6336 23.989 20.1043C23.5568 19.588 23.2777 19.0511 23.1516 18.4934C23.0256 17.9357 23.0532 17.3956 23.2346 16.8733C23.4182 16.349 23.7561 15.8809 24.2484 15.4687C24.5795 15.1915 24.9324 14.9868 25.3071 14.8546C25.6822 14.7184 26.0649 14.6666 26.4553 14.6992C26.8478 14.7299 27.238 14.8552 27.6259 15.0751C28.012 15.2929 28.3838 15.6152 28.7412 16.0421L29.0613 16.4244L24.8235 19.9725L24.1013 19.1099L27.0289 16.6588C26.8611 16.4584 26.6689 16.3173 26.4523 16.2356C26.2356 16.1539 26.0135 16.1343 25.7859 16.1766C25.5587 16.215 25.3438 16.319 25.1412 16.4886C24.9299 16.6655 24.7836 16.8713 24.7023 17.1061C24.6214 17.3369 24.6035 17.5723 24.6488 17.8123C24.6923 18.0501 24.7959 18.269 24.9597 18.469L25.6464 19.2891C25.8543 19.5374 26.0796 19.7137 26.3225 19.8179C26.5675 19.9203 26.816 19.9493 27.068 19.9051C27.32 19.8609 27.5625 19.7412 27.7956 19.546C27.9502 19.4166 28.0736 19.2762 28.1656 19.1251C28.2577 18.9739 28.313 18.8165 28.3315 18.6527C28.35 18.489 28.3304 18.3239 28.2725 18.1574L29.631 17.1646C29.8246 17.5286 29.9168 17.9108 29.9075 18.3114C29.8986 18.7079 29.789 19.1035 29.5785 19.4983C29.3685 19.8891 29.0565 20.2577 28.6426 20.6042Z" fill="white"/>
<path d="M31.5651 13.7128L33.377 17.0349L31.7833 17.9041L28.6492 12.1577L30.1681 11.3293L30.7211 12.3432L30.7884 12.3064C30.7333 11.9029 30.8024 11.5222 30.9956 11.1644C31.1874 10.8042 31.4966 10.5077 31.9231 10.2751C32.3221 10.0575 32.7177 9.95501 33.1097 9.96773C33.5017 9.98044 33.8684 10.104 34.2099 10.3385C34.5499 10.5704 34.8417 10.9096 35.0852 11.3561L37.0807 15.0149L35.487 15.8841L33.6466 12.5096C33.4573 12.1566 33.2178 11.9312 32.9283 11.8335C32.6374 11.7332 32.3324 11.7702 32.0131 11.9443C31.7986 12.0613 31.6342 12.2108 31.52 12.3929C31.4082 12.5736 31.3544 12.7776 31.3587 13.005C31.3642 13.2286 31.433 13.4645 31.5651 13.7128Z" fill="white"/>
<path d="M40.4106 13.9607C39.9353 14.1064 39.4673 14.1163 39.0067 13.9901C38.5479 13.8604 38.1325 13.5911 37.7605 13.1823C37.3903 12.7698 37.0982 12.2146 36.8841 11.5166C36.6642 10.7996 36.5967 10.168 36.6818 9.62188C36.766 9.07305 36.9634 8.62176 37.2739 8.268C37.5863 7.9107 37.9719 7.66165 38.431 7.52087C38.7813 7.4134 39.0916 7.3836 39.3619 7.43146C39.634 7.47578 39.8691 7.56413 40.0672 7.69652C40.2672 7.82536 40.431 7.96231 40.5587 8.10738L40.6117 8.09113L39.6495 4.95413L41.3809 4.42305L43.9401 12.7667L42.229 13.2915L41.9216 12.2893L41.8483 12.3118C41.8201 12.5106 41.7576 12.7185 41.6607 12.9354C41.5657 13.1488 41.4171 13.3474 41.2149 13.5312C41.0155 13.7142 40.7474 13.8574 40.4106 13.9607ZM40.537 12.4109C40.8168 12.3251 41.0297 12.1765 41.1759 11.9653C41.324 11.7505 41.4071 11.4888 41.4254 11.1801C41.4463 10.8705 41.3997 10.5297 41.2856 10.1576C41.1715 9.78555 41.0207 9.47817 40.8334 9.23551C40.646 8.99285 40.4317 8.82681 40.1903 8.73741C39.9489 8.64801 39.6884 8.64621 39.4086 8.73202C39.1235 8.81949 38.9068 8.97062 38.7588 9.18542C38.6107 9.40021 38.5285 9.66018 38.5121 9.96532C38.4958 10.2705 38.543 10.6036 38.6538 10.9649C38.7654 11.3288 38.9144 11.6353 39.1007 11.8842C39.2889 12.1296 39.5035 12.3014 39.7447 12.3998C39.9877 12.4947 40.2518 12.4983 40.537 12.4109Z" fill="white"/>
<path d="M48.5451 7.84367L48.7207 9.27327L44.7703 9.75848L44.5947 8.32888L48.5451 7.84367Z" fill="white"/>
<path d="M52.4567 3.36471L52.3797 12.0916L50.5644 12.0756L50.6415 3.34869L52.4567 3.36471Z" fill="white"/>
<path d="M56.8481 12.6113C56.1829 12.5073 55.6314 12.283 55.1935 11.9385C54.759 11.5916 54.4514 11.1496 54.2709 10.6124C54.0908 10.0724 54.054 9.46138 54.1607 8.77933C54.2647 8.11412 54.4851 7.5505 54.8219 7.08846C55.1587 6.62643 55.5834 6.29172 56.0961 6.08434C56.6115 5.8774 57.1864 5.82353 57.8207 5.92273C58.2474 5.98944 58.6338 6.12032 58.9799 6.31535C59.3294 6.50801 59.6203 6.76198 59.8528 7.07726C60.0881 7.39297 60.2507 7.7692 60.3405 8.20594C60.4308 8.63987 60.433 9.1319 60.3469 9.68204L60.2699 10.1746L54.8093 9.3207L54.9831 8.20921L58.7554 8.79912C58.7958 8.5409 58.7754 8.30337 58.6943 8.08653C58.6132 7.86969 58.4818 7.68955 58.3001 7.54611C58.1216 7.40031 57.9019 7.307 57.6408 7.26618C57.3686 7.2236 57.1173 7.24901 56.887 7.34239C56.66 7.43341 56.4711 7.57496 56.3203 7.76703C56.1699 7.9563 56.0734 8.17842 56.0306 8.4334L55.8654 9.49016C55.8153 9.81014 55.8311 10.0958 55.9125 10.3472C55.9968 10.5991 56.1385 10.8053 56.3377 10.9658C56.5368 11.1263 56.7866 11.2301 57.0869 11.2771C57.2862 11.3082 57.473 11.3087 57.6474 11.2784C57.8218 11.2482 57.9767 11.1862 58.1122 11.0923C58.2476 10.9985 58.3589 10.875 58.4461 10.7219L60.0878 11.0907C59.9413 11.4761 59.7142 11.7972 59.4067 12.0539C59.1024 12.3082 58.7324 12.4861 58.2967 12.5877C57.8642 12.6868 57.3814 12.6947 56.8481 12.6113Z" fill="white"/>
<path d="M67.676 10.686L66.0775 10.2201C66.0988 10.0768 66.0845 9.93583 66.0347 9.79718C65.9859 9.65586 65.9008 9.52717 65.7795 9.41112C65.6619 9.29336 65.5041 9.19892 65.3063 9.12781C65.0416 9.03268 64.7982 9.00859 64.576 9.05553C64.3548 9.0998 64.2111 9.21417 64.1448 9.39864C64.0919 9.54568 64.1061 9.69114 64.1872 9.83501C64.2683 9.97888 64.4409 10.133 64.7048 10.2973L65.7389 10.9225C66.2936 11.2608 66.669 11.6191 66.865 11.9975C67.0611 12.3759 67.0794 12.787 66.9199 13.2308C66.7748 13.6345 66.5285 13.9459 66.181 14.1652C65.8362 14.3854 65.4272 14.5071 64.954 14.5302C64.4844 14.5516 63.9822 14.4662 63.4476 14.274C62.6321 13.9809 62.0435 13.5777 61.6816 13.0642C61.3234 12.5491 61.2086 11.9825 61.3371 11.3646L63.0491 11.8803C63.0105 12.1471 63.0653 12.3812 63.2133 12.5823C63.3624 12.7808 63.5893 12.9348 63.8941 13.0443C64.1935 13.152 64.4548 13.181 64.6779 13.1313C64.9046 13.08 65.0525 12.9626 65.1215 12.7791C65.1745 12.6231 65.1547 12.4725 65.0619 12.3275C64.9701 12.1798 64.8001 12.0311 64.552 11.8816L63.5617 11.2856C63.0034 10.9491 62.6305 10.5796 62.4431 10.1772C62.2583 9.77569 62.2486 9.34503 62.4139 8.88519C62.5561 8.48952 62.7856 8.18709 63.1023 7.9779C63.4216 7.76967 63.8043 7.65817 64.2504 7.64341C64.6991 7.6296 65.1868 7.71734 65.7135 7.90664C66.4915 8.18627 67.0446 8.57073 67.3729 9.06004C67.7038 9.55031 67.8049 10.0923 67.676 10.686Z" fill="white"/>
<path d="M73.8424 14.0606L72.3493 13.3236C72.3952 13.1862 72.4057 13.0449 72.3808 12.8997C72.3573 12.7521 72.2959 12.6106 72.1967 12.4752C72.1013 12.3387 71.9624 12.2183 71.7799 12.1138C71.5358 11.9741 71.3003 11.908 71.0734 11.9156C70.8479 11.9207 70.6864 12.0083 70.589 12.1784C70.5114 12.314 70.5 12.4597 70.5548 12.6155C70.6097 12.7713 70.7528 12.953 70.9841 13.1608L71.8937 13.9565C72.381 14.386 72.6883 14.8042 72.8155 15.2109C72.9427 15.6177 72.8892 16.0257 72.6549 16.435C72.4418 16.8072 72.145 17.0711 71.7647 17.2265C71.3868 17.3834 70.9629 17.432 70.4929 17.3725C70.0267 17.3118 69.5471 17.1404 69.054 16.8581C68.3021 16.4276 67.7926 15.928 67.5256 15.3594C67.2625 14.7898 67.248 14.2119 67.4821 13.6257L69.0782 14.4315C68.9938 14.6876 69.0069 14.9276 69.1178 15.1514C69.23 15.3728 69.4266 15.5639 69.7077 15.7248C69.9838 15.8829 70.2361 15.9569 70.4644 15.9469C70.6966 15.9358 70.8627 15.8459 70.9625 15.6772C71.0419 15.5328 71.0486 15.3811 70.9825 15.2222C70.9178 15.0607 70.7762 14.8848 70.5579 14.6943L69.6864 13.9351C69.1952 13.5066 68.8923 13.0779 68.7778 12.6489C68.6657 12.2214 68.7311 11.7956 68.9739 11.3716C69.1828 11.0067 69.4614 10.7488 69.8096 10.5979C70.1604 10.4484 70.5566 10.4052 70.9985 10.4683C71.4427 10.5328 71.9077 10.7041 72.3934 10.9821C73.1109 11.3929 73.5887 11.8677 73.8268 12.4067C74.0674 12.9471 74.0726 13.4984 73.8424 14.0606Z" fill="white"/>
<path d="M74.2923 20.518C73.7889 20.0882 73.4448 19.6096 73.26 19.0822C73.0792 18.5544 73.0536 18.0134 73.1831 17.4591C73.3144 16.9026 73.5977 16.3694 74.033 15.8594C74.472 15.3451 74.955 14.9805 75.4821 14.7656C76.011 14.5485 76.5493 14.4888 77.0971 14.5865C77.6489 14.684 78.1765 14.9476 78.68 15.3773C79.1835 15.807 79.5256 16.2858 79.7063 16.8136C79.8911 17.341 79.9178 17.883 79.7865 18.4395C79.657 18.9938 79.3727 19.5281 78.9338 20.0423C78.4985 20.5523 78.0164 20.9158 77.4875 21.1329C76.9604 21.3479 76.421 21.4066 75.8692 21.3092C75.3214 21.2114 74.7958 20.9477 74.2923 20.518ZM75.2118 19.4539C75.4408 19.6494 75.6874 19.7478 75.9515 19.7491C76.2174 19.7482 76.4861 19.6675 76.7575 19.507C77.0311 19.3484 77.2915 19.1243 77.5386 18.8347C77.7858 18.5452 77.9662 18.2528 78.0799 17.9577C78.1958 17.6644 78.2332 17.3864 78.1923 17.1236C78.1514 16.8609 78.0164 16.6318 77.7874 16.4363C77.5562 16.2389 77.3054 16.1388 77.0352 16.136C76.7671 16.135 76.4963 16.2139 76.2226 16.3725C75.9512 16.533 75.6919 16.758 75.4448 17.0476C75.1976 17.3371 75.0161 17.6286 74.9003 17.9218C74.7866 18.217 74.7513 18.4968 74.7943 18.7614C74.8414 19.0257 74.9806 19.2565 75.2118 19.4539Z" fill="white"/>
<path d="M81.5934 22.2714L78.6139 24.6042L77.4948 23.1749L82.6484 19.1397L83.715 20.5019L82.8058 21.2139L82.853 21.2743C83.2421 21.1537 83.6289 21.1593 84.0136 21.2911C84.4005 21.4211 84.7436 21.6774 85.0431 22.0599C85.3233 22.4178 85.4894 22.7912 85.5412 23.1799C85.5931 23.5687 85.5314 23.9508 85.3562 24.3261C85.1832 24.6996 84.8965 25.0432 84.4961 25.3567L81.2147 27.9259L80.0956 26.4966L83.122 24.127C83.4392 23.8823 83.6222 23.6091 83.671 23.3074C83.7221 23.004 83.6356 22.7092 83.4114 22.4229C83.2608 22.2305 83.0863 22.0929 82.8879 22.0101C82.6913 21.9295 82.4812 21.91 82.2576 21.9516C82.038 21.9936 81.8166 22.1002 81.5934 22.2714Z" fill="white"/>
<path d="M88.4752 31.5633L87.6212 30.1339C87.7343 30.0434 87.8198 29.9305 87.8777 29.795C87.9381 29.6583 87.9634 29.5061 87.9535 29.3385C87.9475 29.1721 87.8962 28.9956 87.7996 28.8088C87.6705 28.559 87.5085 28.3756 87.3138 28.2588C87.1217 28.1407 86.9385 28.1267 86.7644 28.2167C86.6256 28.2884 86.5369 28.4046 86.4984 28.5652C86.4599 28.7258 86.4814 28.9562 86.563 29.2562L86.895 30.4181C87.0712 31.0435 87.1023 31.5614 86.9884 31.9721C86.8745 32.3828 86.6081 32.6964 86.1891 32.913C85.8081 33.11 85.4156 33.1705 85.0118 33.0946C84.6093 33.0213 84.2269 32.832 83.8644 32.5269C83.5058 32.223 83.1961 31.8186 82.9352 31.3139C82.5373 30.5442 82.3805 29.8481 82.4649 29.2256C82.5531 28.6044 82.8546 28.1111 83.3693 27.7459L84.2725 29.289C84.0626 29.4582 83.9435 29.6669 83.915 29.9151C83.8891 30.1619 83.9505 30.4292 84.0993 30.7169C84.2454 30.9996 84.4171 31.1986 84.6143 31.3142C84.8153 31.4309 85.0036 31.4455 85.179 31.358C85.3241 31.2798 85.412 31.156 85.4428 30.9866C85.476 30.8159 85.4527 30.5913 85.3727 30.3129L85.0528 29.2022C84.8728 28.5757 84.8511 28.0512 84.9878 27.6288C85.1257 27.2089 85.4117 26.8868 85.8457 26.6624C86.2192 26.4693 86.5932 26.4039 86.9676 26.4662C87.3433 26.531 87.6996 26.7098 88.0364 27.0026C88.3746 27.2979 88.6721 27.6942 88.9291 28.1913C89.3088 28.9257 89.4523 29.5839 89.3598 30.1658C89.2686 30.7502 88.9737 31.216 88.4752 31.5633Z" fill="white"/>
</svg>
